G04 #@! TF.GenerationSoftware,KiCad,Pcbnew,(5.1.4)-1*
G04 #@! TF.CreationDate,2020-03-11T17:01:30-07:00*
G04 #@! TF.ProjectId,mouse led array,6d6f7573-6520-46c6-9564-206172726179,rev?*
G04 #@! TF.SameCoordinates,Original*
G04 #@! TF.FileFunction,Legend,Top*
G04 #@! TF.FilePolarity,Positive*
%FSLAX46Y46*%
G04 Gerber Fmt 4.6, Leading zero omitted, Abs format (unit mm)*
G04 Created by KiCad (PCBNEW (5.1.4)-1) date 2020-03-11 17:01:30*
%MOMM*%
%LPD*%
G04 APERTURE LIST*
%ADD10C,0.150000*%
%ADD11C,0.120000*%
G04 APERTURE END LIST*
D10*
X78714476Y-21611428D02*
X79476380Y-21611428D01*
X79095428Y-21992380D02*
X79095428Y-21230476D01*
X79809714Y-20992380D02*
X80143047Y-21992380D01*
X80476380Y-20992380D01*
X80809714Y-21992380D02*
X80809714Y-20992380D01*
X81047809Y-20992380D01*
X81190666Y-21040000D01*
X81285904Y-21135238D01*
X81333523Y-21230476D01*
X81381142Y-21420952D01*
X81381142Y-21563809D01*
X81333523Y-21754285D01*
X81285904Y-21849523D01*
X81190666Y-21944761D01*
X81047809Y-21992380D01*
X80809714Y-21992380D01*
X82381142Y-21897142D02*
X82333523Y-21944761D01*
X82190666Y-21992380D01*
X82095428Y-21992380D01*
X81952571Y-21944761D01*
X81857333Y-21849523D01*
X81809714Y-21754285D01*
X81762095Y-21563809D01*
X81762095Y-21420952D01*
X81809714Y-21230476D01*
X81857333Y-21135238D01*
X81952571Y-21040000D01*
X82095428Y-20992380D01*
X82190666Y-20992380D01*
X82333523Y-21040000D01*
X82381142Y-21087619D01*
X99762095Y-21040000D02*
X99666857Y-20992380D01*
X99524000Y-20992380D01*
X99381142Y-21040000D01*
X99285904Y-21135238D01*
X99238285Y-21230476D01*
X99190666Y-21420952D01*
X99190666Y-21563809D01*
X99238285Y-21754285D01*
X99285904Y-21849523D01*
X99381142Y-21944761D01*
X99524000Y-21992380D01*
X99619238Y-21992380D01*
X99762095Y-21944761D01*
X99809714Y-21897142D01*
X99809714Y-21563809D01*
X99619238Y-21563809D01*
X100238285Y-21992380D02*
X100238285Y-20992380D01*
X100809714Y-21992380D01*
X100809714Y-20992380D01*
X101285904Y-21992380D02*
X101285904Y-20992380D01*
X101524000Y-20992380D01*
X101666857Y-21040000D01*
X101762095Y-21135238D01*
X101809714Y-21230476D01*
X101857333Y-21420952D01*
X101857333Y-21563809D01*
X101809714Y-21754285D01*
X101762095Y-21849523D01*
X101666857Y-21944761D01*
X101524000Y-21992380D01*
X101285904Y-21992380D01*
D11*
X139705250Y-136127500D02*
G75*
G03X139705250Y-136127500I-300000J0D01*
G01*
X138974000Y-135265000D02*
G75*
G02X139836500Y-134402500I862500J0D01*
G01*
X139836500Y-131815000D02*
X139836500Y-135265000D01*
X131211500Y-131815000D02*
X139836500Y-131815000D01*
X131211500Y-135265000D02*
X131211500Y-131815000D01*
X139836500Y-135265000D02*
X131211500Y-135265000D01*
X116942750Y-130952500D02*
G75*
G03X116942750Y-130952500I-300000J0D01*
G01*
X117074000Y-131815000D02*
G75*
G02X116211500Y-132677500I-862500J0D01*
G01*
X116211500Y-135265000D02*
X116211500Y-131815000D01*
X124836500Y-135265000D02*
X116211500Y-135265000D01*
X124836500Y-131815000D02*
X124836500Y-135265000D01*
X116211500Y-131815000D02*
X124836500Y-131815000D01*
X109705250Y-136127500D02*
G75*
G03X109705250Y-136127500I-300000J0D01*
G01*
X108974000Y-135265000D02*
G75*
G02X109836500Y-134402500I862500J0D01*
G01*
X109836500Y-131815000D02*
X109836500Y-135265000D01*
X101211500Y-131815000D02*
X109836500Y-131815000D01*
X101211500Y-135265000D02*
X101211500Y-131815000D01*
X109836500Y-135265000D02*
X101211500Y-135265000D01*
X86942750Y-130952500D02*
G75*
G03X86942750Y-130952500I-300000J0D01*
G01*
X87074000Y-131815000D02*
G75*
G02X86211500Y-132677500I-862500J0D01*
G01*
X86211500Y-135265000D02*
X86211500Y-131815000D01*
X94836500Y-135265000D02*
X86211500Y-135265000D01*
X94836500Y-131815000D02*
X94836500Y-135265000D01*
X86211500Y-131815000D02*
X94836500Y-131815000D01*
X79705250Y-136127500D02*
G75*
G03X79705250Y-136127500I-300000J0D01*
G01*
X78974000Y-135265000D02*
G75*
G02X79836500Y-134402500I862500J0D01*
G01*
X79836500Y-131815000D02*
X79836500Y-135265000D01*
X71211500Y-131815000D02*
X79836500Y-131815000D01*
X71211500Y-135265000D02*
X71211500Y-131815000D01*
X79836500Y-135265000D02*
X71211500Y-135265000D01*
X56942750Y-130952500D02*
G75*
G03X56942750Y-130952500I-300000J0D01*
G01*
X57074000Y-131815000D02*
G75*
G02X56211500Y-132677500I-862500J0D01*
G01*
X56211500Y-135265000D02*
X56211500Y-131815000D01*
X64836500Y-135265000D02*
X56211500Y-135265000D01*
X64836500Y-131815000D02*
X64836500Y-135265000D01*
X56211500Y-131815000D02*
X64836500Y-131815000D01*
X49705250Y-136127500D02*
G75*
G03X49705250Y-136127500I-300000J0D01*
G01*
X48974000Y-135265000D02*
G75*
G02X49836500Y-134402500I862500J0D01*
G01*
X49836500Y-131815000D02*
X49836500Y-135265000D01*
X41211500Y-131815000D02*
X49836500Y-131815000D01*
X41211500Y-135265000D02*
X41211500Y-131815000D01*
X49836500Y-135265000D02*
X41211500Y-135265000D01*
X139705250Y-121127500D02*
G75*
G03X139705250Y-121127500I-300000J0D01*
G01*
X138974000Y-120265000D02*
G75*
G02X139836500Y-119402500I862500J0D01*
G01*
X139836500Y-116815000D02*
X139836500Y-120265000D01*
X131211500Y-116815000D02*
X139836500Y-116815000D01*
X131211500Y-120265000D02*
X131211500Y-116815000D01*
X139836500Y-120265000D02*
X131211500Y-120265000D01*
X116942750Y-115952500D02*
G75*
G03X116942750Y-115952500I-300000J0D01*
G01*
X117074000Y-116815000D02*
G75*
G02X116211500Y-117677500I-862500J0D01*
G01*
X116211500Y-120265000D02*
X116211500Y-116815000D01*
X124836500Y-120265000D02*
X116211500Y-120265000D01*
X124836500Y-116815000D02*
X124836500Y-120265000D01*
X116211500Y-116815000D02*
X124836500Y-116815000D01*
X109705250Y-121127500D02*
G75*
G03X109705250Y-121127500I-300000J0D01*
G01*
X108974000Y-120265000D02*
G75*
G02X109836500Y-119402500I862500J0D01*
G01*
X109836500Y-116815000D02*
X109836500Y-120265000D01*
X101211500Y-116815000D02*
X109836500Y-116815000D01*
X101211500Y-120265000D02*
X101211500Y-116815000D01*
X109836500Y-120265000D02*
X101211500Y-120265000D01*
X86942750Y-115952500D02*
G75*
G03X86942750Y-115952500I-300000J0D01*
G01*
X87074000Y-116815000D02*
G75*
G02X86211500Y-117677500I-862500J0D01*
G01*
X86211500Y-120265000D02*
X86211500Y-116815000D01*
X94836500Y-120265000D02*
X86211500Y-120265000D01*
X94836500Y-116815000D02*
X94836500Y-120265000D01*
X86211500Y-116815000D02*
X94836500Y-116815000D01*
X79705250Y-121127500D02*
G75*
G03X79705250Y-121127500I-300000J0D01*
G01*
X78974000Y-120265000D02*
G75*
G02X79836500Y-119402500I862500J0D01*
G01*
X79836500Y-116815000D02*
X79836500Y-120265000D01*
X71211500Y-116815000D02*
X79836500Y-116815000D01*
X71211500Y-120265000D02*
X71211500Y-116815000D01*
X79836500Y-120265000D02*
X71211500Y-120265000D01*
X56942750Y-115952500D02*
G75*
G03X56942750Y-115952500I-300000J0D01*
G01*
X57074000Y-116815000D02*
G75*
G02X56211500Y-117677500I-862500J0D01*
G01*
X56211500Y-120265000D02*
X56211500Y-116815000D01*
X64836500Y-120265000D02*
X56211500Y-120265000D01*
X64836500Y-116815000D02*
X64836500Y-120265000D01*
X56211500Y-116815000D02*
X64836500Y-116815000D01*
X49705250Y-121127500D02*
G75*
G03X49705250Y-121127500I-300000J0D01*
G01*
X48974000Y-120265000D02*
G75*
G02X49836500Y-119402500I862500J0D01*
G01*
X49836500Y-116815000D02*
X49836500Y-120265000D01*
X41211500Y-116815000D02*
X49836500Y-116815000D01*
X41211500Y-120265000D02*
X41211500Y-116815000D01*
X49836500Y-120265000D02*
X41211500Y-120265000D01*
X139705250Y-106127500D02*
G75*
G03X139705250Y-106127500I-300000J0D01*
G01*
X138974000Y-105265000D02*
G75*
G02X139836500Y-104402500I862500J0D01*
G01*
X139836500Y-101815000D02*
X139836500Y-105265000D01*
X131211500Y-101815000D02*
X139836500Y-101815000D01*
X131211500Y-105265000D02*
X131211500Y-101815000D01*
X139836500Y-105265000D02*
X131211500Y-105265000D01*
X116942750Y-100952500D02*
G75*
G03X116942750Y-100952500I-300000J0D01*
G01*
X117074000Y-101815000D02*
G75*
G02X116211500Y-102677500I-862500J0D01*
G01*
X116211500Y-105265000D02*
X116211500Y-101815000D01*
X124836500Y-105265000D02*
X116211500Y-105265000D01*
X124836500Y-101815000D02*
X124836500Y-105265000D01*
X116211500Y-101815000D02*
X124836500Y-101815000D01*
X109705250Y-106127500D02*
G75*
G03X109705250Y-106127500I-300000J0D01*
G01*
X108974000Y-105265000D02*
G75*
G02X109836500Y-104402500I862500J0D01*
G01*
X109836500Y-101815000D02*
X109836500Y-105265000D01*
X101211500Y-101815000D02*
X109836500Y-101815000D01*
X101211500Y-105265000D02*
X101211500Y-101815000D01*
X109836500Y-105265000D02*
X101211500Y-105265000D01*
X86942750Y-100952500D02*
G75*
G03X86942750Y-100952500I-300000J0D01*
G01*
X87074000Y-101815000D02*
G75*
G02X86211500Y-102677500I-862500J0D01*
G01*
X86211500Y-105265000D02*
X86211500Y-101815000D01*
X94836500Y-105265000D02*
X86211500Y-105265000D01*
X94836500Y-101815000D02*
X94836500Y-105265000D01*
X86211500Y-101815000D02*
X94836500Y-101815000D01*
X79705250Y-106127500D02*
G75*
G03X79705250Y-106127500I-300000J0D01*
G01*
X78974000Y-105265000D02*
G75*
G02X79836500Y-104402500I862500J0D01*
G01*
X79836500Y-101815000D02*
X79836500Y-105265000D01*
X71211500Y-101815000D02*
X79836500Y-101815000D01*
X71211500Y-105265000D02*
X71211500Y-101815000D01*
X79836500Y-105265000D02*
X71211500Y-105265000D01*
X56942750Y-100952500D02*
G75*
G03X56942750Y-100952500I-300000J0D01*
G01*
X57074000Y-101815000D02*
G75*
G02X56211500Y-102677500I-862500J0D01*
G01*
X56211500Y-105265000D02*
X56211500Y-101815000D01*
X64836500Y-105265000D02*
X56211500Y-105265000D01*
X64836500Y-101815000D02*
X64836500Y-105265000D01*
X56211500Y-101815000D02*
X64836500Y-101815000D01*
X49705250Y-106127500D02*
G75*
G03X49705250Y-106127500I-300000J0D01*
G01*
X48974000Y-105265000D02*
G75*
G02X49836500Y-104402500I862500J0D01*
G01*
X49836500Y-101815000D02*
X49836500Y-105265000D01*
X41211500Y-101815000D02*
X49836500Y-101815000D01*
X41211500Y-105265000D02*
X41211500Y-101815000D01*
X49836500Y-105265000D02*
X41211500Y-105265000D01*
X139705250Y-91127500D02*
G75*
G03X139705250Y-91127500I-300000J0D01*
G01*
X138974000Y-90265000D02*
G75*
G02X139836500Y-89402500I862500J0D01*
G01*
X139836500Y-86815000D02*
X139836500Y-90265000D01*
X131211500Y-86815000D02*
X139836500Y-86815000D01*
X131211500Y-90265000D02*
X131211500Y-86815000D01*
X139836500Y-90265000D02*
X131211500Y-90265000D01*
X116942750Y-85952500D02*
G75*
G03X116942750Y-85952500I-300000J0D01*
G01*
X117074000Y-86815000D02*
G75*
G02X116211500Y-87677500I-862500J0D01*
G01*
X116211500Y-90265000D02*
X116211500Y-86815000D01*
X124836500Y-90265000D02*
X116211500Y-90265000D01*
X124836500Y-86815000D02*
X124836500Y-90265000D01*
X116211500Y-86815000D02*
X124836500Y-86815000D01*
X109705250Y-91127500D02*
G75*
G03X109705250Y-91127500I-300000J0D01*
G01*
X108974000Y-90265000D02*
G75*
G02X109836500Y-89402500I862500J0D01*
G01*
X109836500Y-86815000D02*
X109836500Y-90265000D01*
X101211500Y-86815000D02*
X109836500Y-86815000D01*
X101211500Y-90265000D02*
X101211500Y-86815000D01*
X109836500Y-90265000D02*
X101211500Y-90265000D01*
X86942750Y-85952500D02*
G75*
G03X86942750Y-85952500I-300000J0D01*
G01*
X87074000Y-86815000D02*
G75*
G02X86211500Y-87677500I-862500J0D01*
G01*
X86211500Y-90265000D02*
X86211500Y-86815000D01*
X94836500Y-90265000D02*
X86211500Y-90265000D01*
X94836500Y-86815000D02*
X94836500Y-90265000D01*
X86211500Y-86815000D02*
X94836500Y-86815000D01*
X79705250Y-91127500D02*
G75*
G03X79705250Y-91127500I-300000J0D01*
G01*
X78974000Y-90265000D02*
G75*
G02X79836500Y-89402500I862500J0D01*
G01*
X79836500Y-86815000D02*
X79836500Y-90265000D01*
X71211500Y-86815000D02*
X79836500Y-86815000D01*
X71211500Y-90265000D02*
X71211500Y-86815000D01*
X79836500Y-90265000D02*
X71211500Y-90265000D01*
X56942750Y-85952500D02*
G75*
G03X56942750Y-85952500I-300000J0D01*
G01*
X57074000Y-86815000D02*
G75*
G02X56211500Y-87677500I-862500J0D01*
G01*
X56211500Y-90265000D02*
X56211500Y-86815000D01*
X64836500Y-90265000D02*
X56211500Y-90265000D01*
X64836500Y-86815000D02*
X64836500Y-90265000D01*
X56211500Y-86815000D02*
X64836500Y-86815000D01*
X49705250Y-91127500D02*
G75*
G03X49705250Y-91127500I-300000J0D01*
G01*
X48974000Y-90265000D02*
G75*
G02X49836500Y-89402500I862500J0D01*
G01*
X49836500Y-86815000D02*
X49836500Y-90265000D01*
X41211500Y-86815000D02*
X49836500Y-86815000D01*
X41211500Y-90265000D02*
X41211500Y-86815000D01*
X49836500Y-90265000D02*
X41211500Y-90265000D01*
X139705250Y-76127500D02*
G75*
G03X139705250Y-76127500I-300000J0D01*
G01*
X138974000Y-75265000D02*
G75*
G02X139836500Y-74402500I862500J0D01*
G01*
X139836500Y-71815000D02*
X139836500Y-75265000D01*
X131211500Y-71815000D02*
X139836500Y-71815000D01*
X131211500Y-75265000D02*
X131211500Y-71815000D01*
X139836500Y-75265000D02*
X131211500Y-75265000D01*
X116942750Y-70952500D02*
G75*
G03X116942750Y-70952500I-300000J0D01*
G01*
X117074000Y-71815000D02*
G75*
G02X116211500Y-72677500I-862500J0D01*
G01*
X116211500Y-75265000D02*
X116211500Y-71815000D01*
X124836500Y-75265000D02*
X116211500Y-75265000D01*
X124836500Y-71815000D02*
X124836500Y-75265000D01*
X116211500Y-71815000D02*
X124836500Y-71815000D01*
X109705250Y-76127500D02*
G75*
G03X109705250Y-76127500I-300000J0D01*
G01*
X108974000Y-75265000D02*
G75*
G02X109836500Y-74402500I862500J0D01*
G01*
X109836500Y-71815000D02*
X109836500Y-75265000D01*
X101211500Y-71815000D02*
X109836500Y-71815000D01*
X101211500Y-75265000D02*
X101211500Y-71815000D01*
X109836500Y-75265000D02*
X101211500Y-75265000D01*
X86942750Y-70952500D02*
G75*
G03X86942750Y-70952500I-300000J0D01*
G01*
X87074000Y-71815000D02*
G75*
G02X86211500Y-72677500I-862500J0D01*
G01*
X86211500Y-75265000D02*
X86211500Y-71815000D01*
X94836500Y-75265000D02*
X86211500Y-75265000D01*
X94836500Y-71815000D02*
X94836500Y-75265000D01*
X86211500Y-71815000D02*
X94836500Y-71815000D01*
X79705250Y-76127500D02*
G75*
G03X79705250Y-76127500I-300000J0D01*
G01*
X78974000Y-75265000D02*
G75*
G02X79836500Y-74402500I862500J0D01*
G01*
X79836500Y-71815000D02*
X79836500Y-75265000D01*
X71211500Y-71815000D02*
X79836500Y-71815000D01*
X71211500Y-75265000D02*
X71211500Y-71815000D01*
X79836500Y-75265000D02*
X71211500Y-75265000D01*
X56942750Y-70952500D02*
G75*
G03X56942750Y-70952500I-300000J0D01*
G01*
X57074000Y-71815000D02*
G75*
G02X56211500Y-72677500I-862500J0D01*
G01*
X56211500Y-75265000D02*
X56211500Y-71815000D01*
X64836500Y-75265000D02*
X56211500Y-75265000D01*
X64836500Y-71815000D02*
X64836500Y-75265000D01*
X56211500Y-71815000D02*
X64836500Y-71815000D01*
X49705250Y-76127500D02*
G75*
G03X49705250Y-76127500I-300000J0D01*
G01*
X48974000Y-75265000D02*
G75*
G02X49836500Y-74402500I862500J0D01*
G01*
X49836500Y-71815000D02*
X49836500Y-75265000D01*
X41211500Y-71815000D02*
X49836500Y-71815000D01*
X41211500Y-75265000D02*
X41211500Y-71815000D01*
X49836500Y-75265000D02*
X41211500Y-75265000D01*
X139705250Y-61127500D02*
G75*
G03X139705250Y-61127500I-300000J0D01*
G01*
X138974000Y-60265000D02*
G75*
G02X139836500Y-59402500I862500J0D01*
G01*
X139836500Y-56815000D02*
X139836500Y-60265000D01*
X131211500Y-56815000D02*
X139836500Y-56815000D01*
X131211500Y-60265000D02*
X131211500Y-56815000D01*
X139836500Y-60265000D02*
X131211500Y-60265000D01*
X116942750Y-55952500D02*
G75*
G03X116942750Y-55952500I-300000J0D01*
G01*
X117074000Y-56815000D02*
G75*
G02X116211500Y-57677500I-862500J0D01*
G01*
X116211500Y-60265000D02*
X116211500Y-56815000D01*
X124836500Y-60265000D02*
X116211500Y-60265000D01*
X124836500Y-56815000D02*
X124836500Y-60265000D01*
X116211500Y-56815000D02*
X124836500Y-56815000D01*
X109705250Y-61127500D02*
G75*
G03X109705250Y-61127500I-300000J0D01*
G01*
X108974000Y-60265000D02*
G75*
G02X109836500Y-59402500I862500J0D01*
G01*
X109836500Y-56815000D02*
X109836500Y-60265000D01*
X101211500Y-56815000D02*
X109836500Y-56815000D01*
X101211500Y-60265000D02*
X101211500Y-56815000D01*
X109836500Y-60265000D02*
X101211500Y-60265000D01*
X86942750Y-55952500D02*
G75*
G03X86942750Y-55952500I-300000J0D01*
G01*
X87074000Y-56815000D02*
G75*
G02X86211500Y-57677500I-862500J0D01*
G01*
X86211500Y-60265000D02*
X86211500Y-56815000D01*
X94836500Y-60265000D02*
X86211500Y-60265000D01*
X94836500Y-56815000D02*
X94836500Y-60265000D01*
X86211500Y-56815000D02*
X94836500Y-56815000D01*
X79705250Y-61127500D02*
G75*
G03X79705250Y-61127500I-300000J0D01*
G01*
X78974000Y-60265000D02*
G75*
G02X79836500Y-59402500I862500J0D01*
G01*
X79836500Y-56815000D02*
X79836500Y-60265000D01*
X71211500Y-56815000D02*
X79836500Y-56815000D01*
X71211500Y-60265000D02*
X71211500Y-56815000D01*
X79836500Y-60265000D02*
X71211500Y-60265000D01*
X56942750Y-55952500D02*
G75*
G03X56942750Y-55952500I-300000J0D01*
G01*
X57074000Y-56815000D02*
G75*
G02X56211500Y-57677500I-862500J0D01*
G01*
X56211500Y-60265000D02*
X56211500Y-56815000D01*
X64836500Y-60265000D02*
X56211500Y-60265000D01*
X64836500Y-56815000D02*
X64836500Y-60265000D01*
X56211500Y-56815000D02*
X64836500Y-56815000D01*
X49698050Y-61121800D02*
G75*
G03X49698050Y-61121800I-300000J0D01*
G01*
X48966800Y-60259300D02*
G75*
G02X49829300Y-59396800I862500J0D01*
G01*
X49829300Y-56809300D02*
X49829300Y-60259300D01*
X41204300Y-56809300D02*
X49829300Y-56809300D01*
X41204300Y-60259300D02*
X41204300Y-56809300D01*
X49829300Y-60259300D02*
X41204300Y-60259300D01*
X139705250Y-46127500D02*
G75*
G03X139705250Y-46127500I-300000J0D01*
G01*
X138974000Y-45265000D02*
G75*
G02X139836500Y-44402500I862500J0D01*
G01*
X139836500Y-41815000D02*
X139836500Y-45265000D01*
X131211500Y-41815000D02*
X139836500Y-41815000D01*
X131211500Y-45265000D02*
X131211500Y-41815000D01*
X139836500Y-45265000D02*
X131211500Y-45265000D01*
X116942750Y-40952500D02*
G75*
G03X116942750Y-40952500I-300000J0D01*
G01*
X117074000Y-41815000D02*
G75*
G02X116211500Y-42677500I-862500J0D01*
G01*
X116211500Y-45265000D02*
X116211500Y-41815000D01*
X124836500Y-45265000D02*
X116211500Y-45265000D01*
X124836500Y-41815000D02*
X124836500Y-45265000D01*
X116211500Y-41815000D02*
X124836500Y-41815000D01*
X109705250Y-46127500D02*
G75*
G03X109705250Y-46127500I-300000J0D01*
G01*
X108974000Y-45265000D02*
G75*
G02X109836500Y-44402500I862500J0D01*
G01*
X109836500Y-41815000D02*
X109836500Y-45265000D01*
X101211500Y-41815000D02*
X109836500Y-41815000D01*
X101211500Y-45265000D02*
X101211500Y-41815000D01*
X109836500Y-45265000D02*
X101211500Y-45265000D01*
X86942750Y-40952500D02*
G75*
G03X86942750Y-40952500I-300000J0D01*
G01*
X87074000Y-41815000D02*
G75*
G02X86211500Y-42677500I-862500J0D01*
G01*
X86211500Y-45265000D02*
X86211500Y-41815000D01*
X94836500Y-45265000D02*
X86211500Y-45265000D01*
X94836500Y-41815000D02*
X94836500Y-45265000D01*
X86211500Y-41815000D02*
X94836500Y-41815000D01*
X79705250Y-46127500D02*
G75*
G03X79705250Y-46127500I-300000J0D01*
G01*
X78974000Y-45265000D02*
G75*
G02X79836500Y-44402500I862500J0D01*
G01*
X79836500Y-41815000D02*
X79836500Y-45265000D01*
X71211500Y-41815000D02*
X79836500Y-41815000D01*
X71211500Y-45265000D02*
X71211500Y-41815000D01*
X79836500Y-45265000D02*
X71211500Y-45265000D01*
X56942750Y-40952500D02*
G75*
G03X56942750Y-40952500I-300000J0D01*
G01*
X57074000Y-41815000D02*
G75*
G02X56211500Y-42677500I-862500J0D01*
G01*
X56211500Y-45265000D02*
X56211500Y-41815000D01*
X64836500Y-45265000D02*
X56211500Y-45265000D01*
X64836500Y-41815000D02*
X64836500Y-45265000D01*
X56211500Y-41815000D02*
X64836500Y-41815000D01*
X49705250Y-46127500D02*
G75*
G03X49705250Y-46127500I-300000J0D01*
G01*
X48974000Y-45265000D02*
G75*
G02X49836500Y-44402500I862500J0D01*
G01*
X49836500Y-41815000D02*
X49836500Y-45265000D01*
X41211500Y-41815000D02*
X49836500Y-41815000D01*
X41211500Y-45265000D02*
X41211500Y-41815000D01*
X49836500Y-45265000D02*
X41211500Y-45265000D01*
D10*
X134309714Y-136992380D02*
X134309714Y-135992380D01*
X134547809Y-135992380D01*
X134690666Y-136040000D01*
X134785904Y-136135238D01*
X134833523Y-136230476D01*
X134881142Y-136420952D01*
X134881142Y-136563809D01*
X134833523Y-136754285D01*
X134785904Y-136849523D01*
X134690666Y-136944761D01*
X134547809Y-136992380D01*
X134309714Y-136992380D01*
X135738285Y-136325714D02*
X135738285Y-136992380D01*
X135500190Y-135944761D02*
X135262095Y-136659047D01*
X135881142Y-136659047D01*
X136309714Y-136992380D02*
X136500190Y-136992380D01*
X136595428Y-136944761D01*
X136643047Y-136897142D01*
X136738285Y-136754285D01*
X136785904Y-136563809D01*
X136785904Y-136182857D01*
X136738285Y-136087619D01*
X136690666Y-136040000D01*
X136595428Y-135992380D01*
X136404952Y-135992380D01*
X136309714Y-136040000D01*
X136262095Y-136087619D01*
X136214476Y-136182857D01*
X136214476Y-136420952D01*
X136262095Y-136516190D01*
X136309714Y-136563809D01*
X136404952Y-136611428D01*
X136595428Y-136611428D01*
X136690666Y-136563809D01*
X136738285Y-136516190D01*
X136785904Y-136420952D01*
X119309714Y-130992380D02*
X119309714Y-129992380D01*
X119547809Y-129992380D01*
X119690666Y-130040000D01*
X119785904Y-130135238D01*
X119833523Y-130230476D01*
X119881142Y-130420952D01*
X119881142Y-130563809D01*
X119833523Y-130754285D01*
X119785904Y-130849523D01*
X119690666Y-130944761D01*
X119547809Y-130992380D01*
X119309714Y-130992380D01*
X120738285Y-130325714D02*
X120738285Y-130992380D01*
X120500190Y-129944761D02*
X120262095Y-130659047D01*
X120881142Y-130659047D01*
X121404952Y-130420952D02*
X121309714Y-130373333D01*
X121262095Y-130325714D01*
X121214476Y-130230476D01*
X121214476Y-130182857D01*
X121262095Y-130087619D01*
X121309714Y-130040000D01*
X121404952Y-129992380D01*
X121595428Y-129992380D01*
X121690666Y-130040000D01*
X121738285Y-130087619D01*
X121785904Y-130182857D01*
X121785904Y-130230476D01*
X121738285Y-130325714D01*
X121690666Y-130373333D01*
X121595428Y-130420952D01*
X121404952Y-130420952D01*
X121309714Y-130468571D01*
X121262095Y-130516190D01*
X121214476Y-130611428D01*
X121214476Y-130801904D01*
X121262095Y-130897142D01*
X121309714Y-130944761D01*
X121404952Y-130992380D01*
X121595428Y-130992380D01*
X121690666Y-130944761D01*
X121738285Y-130897142D01*
X121785904Y-130801904D01*
X121785904Y-130611428D01*
X121738285Y-130516190D01*
X121690666Y-130468571D01*
X121595428Y-130420952D01*
X104309714Y-136992380D02*
X104309714Y-135992380D01*
X104547809Y-135992380D01*
X104690666Y-136040000D01*
X104785904Y-136135238D01*
X104833523Y-136230476D01*
X104881142Y-136420952D01*
X104881142Y-136563809D01*
X104833523Y-136754285D01*
X104785904Y-136849523D01*
X104690666Y-136944761D01*
X104547809Y-136992380D01*
X104309714Y-136992380D01*
X105738285Y-136325714D02*
X105738285Y-136992380D01*
X105500190Y-135944761D02*
X105262095Y-136659047D01*
X105881142Y-136659047D01*
X106166857Y-135992380D02*
X106833523Y-135992380D01*
X106404952Y-136992380D01*
X89309714Y-130992380D02*
X89309714Y-129992380D01*
X89547809Y-129992380D01*
X89690666Y-130040000D01*
X89785904Y-130135238D01*
X89833523Y-130230476D01*
X89881142Y-130420952D01*
X89881142Y-130563809D01*
X89833523Y-130754285D01*
X89785904Y-130849523D01*
X89690666Y-130944761D01*
X89547809Y-130992380D01*
X89309714Y-130992380D01*
X90738285Y-130325714D02*
X90738285Y-130992380D01*
X90500190Y-129944761D02*
X90262095Y-130659047D01*
X90881142Y-130659047D01*
X91690666Y-129992380D02*
X91500190Y-129992380D01*
X91404952Y-130040000D01*
X91357333Y-130087619D01*
X91262095Y-130230476D01*
X91214476Y-130420952D01*
X91214476Y-130801904D01*
X91262095Y-130897142D01*
X91309714Y-130944761D01*
X91404952Y-130992380D01*
X91595428Y-130992380D01*
X91690666Y-130944761D01*
X91738285Y-130897142D01*
X91785904Y-130801904D01*
X91785904Y-130563809D01*
X91738285Y-130468571D01*
X91690666Y-130420952D01*
X91595428Y-130373333D01*
X91404952Y-130373333D01*
X91309714Y-130420952D01*
X91262095Y-130468571D01*
X91214476Y-130563809D01*
X74309714Y-136992380D02*
X74309714Y-135992380D01*
X74547809Y-135992380D01*
X74690666Y-136040000D01*
X74785904Y-136135238D01*
X74833523Y-136230476D01*
X74881142Y-136420952D01*
X74881142Y-136563809D01*
X74833523Y-136754285D01*
X74785904Y-136849523D01*
X74690666Y-136944761D01*
X74547809Y-136992380D01*
X74309714Y-136992380D01*
X75738285Y-136325714D02*
X75738285Y-136992380D01*
X75500190Y-135944761D02*
X75262095Y-136659047D01*
X75881142Y-136659047D01*
X76738285Y-135992380D02*
X76262095Y-135992380D01*
X76214476Y-136468571D01*
X76262095Y-136420952D01*
X76357333Y-136373333D01*
X76595428Y-136373333D01*
X76690666Y-136420952D01*
X76738285Y-136468571D01*
X76785904Y-136563809D01*
X76785904Y-136801904D01*
X76738285Y-136897142D01*
X76690666Y-136944761D01*
X76595428Y-136992380D01*
X76357333Y-136992380D01*
X76262095Y-136944761D01*
X76214476Y-136897142D01*
X59309714Y-130992380D02*
X59309714Y-129992380D01*
X59547809Y-129992380D01*
X59690666Y-130040000D01*
X59785904Y-130135238D01*
X59833523Y-130230476D01*
X59881142Y-130420952D01*
X59881142Y-130563809D01*
X59833523Y-130754285D01*
X59785904Y-130849523D01*
X59690666Y-130944761D01*
X59547809Y-130992380D01*
X59309714Y-130992380D01*
X60738285Y-130325714D02*
X60738285Y-130992380D01*
X60500190Y-129944761D02*
X60262095Y-130659047D01*
X60881142Y-130659047D01*
X61690666Y-130325714D02*
X61690666Y-130992380D01*
X61452571Y-129944761D02*
X61214476Y-130659047D01*
X61833523Y-130659047D01*
X44309714Y-136992380D02*
X44309714Y-135992380D01*
X44547809Y-135992380D01*
X44690666Y-136040000D01*
X44785904Y-136135238D01*
X44833523Y-136230476D01*
X44881142Y-136420952D01*
X44881142Y-136563809D01*
X44833523Y-136754285D01*
X44785904Y-136849523D01*
X44690666Y-136944761D01*
X44547809Y-136992380D01*
X44309714Y-136992380D01*
X45738285Y-136325714D02*
X45738285Y-136992380D01*
X45500190Y-135944761D02*
X45262095Y-136659047D01*
X45881142Y-136659047D01*
X46166857Y-135992380D02*
X46785904Y-135992380D01*
X46452571Y-136373333D01*
X46595428Y-136373333D01*
X46690666Y-136420952D01*
X46738285Y-136468571D01*
X46785904Y-136563809D01*
X46785904Y-136801904D01*
X46738285Y-136897142D01*
X46690666Y-136944761D01*
X46595428Y-136992380D01*
X46309714Y-136992380D01*
X46214476Y-136944761D01*
X46166857Y-136897142D01*
X134309714Y-121992380D02*
X134309714Y-120992380D01*
X134547809Y-120992380D01*
X134690666Y-121040000D01*
X134785904Y-121135238D01*
X134833523Y-121230476D01*
X134881142Y-121420952D01*
X134881142Y-121563809D01*
X134833523Y-121754285D01*
X134785904Y-121849523D01*
X134690666Y-121944761D01*
X134547809Y-121992380D01*
X134309714Y-121992380D01*
X135738285Y-121325714D02*
X135738285Y-121992380D01*
X135500190Y-120944761D02*
X135262095Y-121659047D01*
X135881142Y-121659047D01*
X136214476Y-121087619D02*
X136262095Y-121040000D01*
X136357333Y-120992380D01*
X136595428Y-120992380D01*
X136690666Y-121040000D01*
X136738285Y-121087619D01*
X136785904Y-121182857D01*
X136785904Y-121278095D01*
X136738285Y-121420952D01*
X136166857Y-121992380D01*
X136785904Y-121992380D01*
X119309714Y-115992380D02*
X119309714Y-114992380D01*
X119547809Y-114992380D01*
X119690666Y-115040000D01*
X119785904Y-115135238D01*
X119833523Y-115230476D01*
X119881142Y-115420952D01*
X119881142Y-115563809D01*
X119833523Y-115754285D01*
X119785904Y-115849523D01*
X119690666Y-115944761D01*
X119547809Y-115992380D01*
X119309714Y-115992380D01*
X120738285Y-115325714D02*
X120738285Y-115992380D01*
X120500190Y-114944761D02*
X120262095Y-115659047D01*
X120881142Y-115659047D01*
X121785904Y-115992380D02*
X121214476Y-115992380D01*
X121500190Y-115992380D02*
X121500190Y-114992380D01*
X121404952Y-115135238D01*
X121309714Y-115230476D01*
X121214476Y-115278095D01*
X104309714Y-121992380D02*
X104309714Y-120992380D01*
X104547809Y-120992380D01*
X104690666Y-121040000D01*
X104785904Y-121135238D01*
X104833523Y-121230476D01*
X104881142Y-121420952D01*
X104881142Y-121563809D01*
X104833523Y-121754285D01*
X104785904Y-121849523D01*
X104690666Y-121944761D01*
X104547809Y-121992380D01*
X104309714Y-121992380D01*
X105738285Y-121325714D02*
X105738285Y-121992380D01*
X105500190Y-120944761D02*
X105262095Y-121659047D01*
X105881142Y-121659047D01*
X106452571Y-120992380D02*
X106547809Y-120992380D01*
X106643047Y-121040000D01*
X106690666Y-121087619D01*
X106738285Y-121182857D01*
X106785904Y-121373333D01*
X106785904Y-121611428D01*
X106738285Y-121801904D01*
X106690666Y-121897142D01*
X106643047Y-121944761D01*
X106547809Y-121992380D01*
X106452571Y-121992380D01*
X106357333Y-121944761D01*
X106309714Y-121897142D01*
X106262095Y-121801904D01*
X106214476Y-121611428D01*
X106214476Y-121373333D01*
X106262095Y-121182857D01*
X106309714Y-121087619D01*
X106357333Y-121040000D01*
X106452571Y-120992380D01*
X89309714Y-115992380D02*
X89309714Y-114992380D01*
X89547809Y-114992380D01*
X89690666Y-115040000D01*
X89785904Y-115135238D01*
X89833523Y-115230476D01*
X89881142Y-115420952D01*
X89881142Y-115563809D01*
X89833523Y-115754285D01*
X89785904Y-115849523D01*
X89690666Y-115944761D01*
X89547809Y-115992380D01*
X89309714Y-115992380D01*
X90214476Y-114992380D02*
X90833523Y-114992380D01*
X90500190Y-115373333D01*
X90643047Y-115373333D01*
X90738285Y-115420952D01*
X90785904Y-115468571D01*
X90833523Y-115563809D01*
X90833523Y-115801904D01*
X90785904Y-115897142D01*
X90738285Y-115944761D01*
X90643047Y-115992380D01*
X90357333Y-115992380D01*
X90262095Y-115944761D01*
X90214476Y-115897142D01*
X91309714Y-115992380D02*
X91500190Y-115992380D01*
X91595428Y-115944761D01*
X91643047Y-115897142D01*
X91738285Y-115754285D01*
X91785904Y-115563809D01*
X91785904Y-115182857D01*
X91738285Y-115087619D01*
X91690666Y-115040000D01*
X91595428Y-114992380D01*
X91404952Y-114992380D01*
X91309714Y-115040000D01*
X91262095Y-115087619D01*
X91214476Y-115182857D01*
X91214476Y-115420952D01*
X91262095Y-115516190D01*
X91309714Y-115563809D01*
X91404952Y-115611428D01*
X91595428Y-115611428D01*
X91690666Y-115563809D01*
X91738285Y-115516190D01*
X91785904Y-115420952D01*
X74309714Y-121992380D02*
X74309714Y-120992380D01*
X74547809Y-120992380D01*
X74690666Y-121040000D01*
X74785904Y-121135238D01*
X74833523Y-121230476D01*
X74881142Y-121420952D01*
X74881142Y-121563809D01*
X74833523Y-121754285D01*
X74785904Y-121849523D01*
X74690666Y-121944761D01*
X74547809Y-121992380D01*
X74309714Y-121992380D01*
X75214476Y-120992380D02*
X75833523Y-120992380D01*
X75500190Y-121373333D01*
X75643047Y-121373333D01*
X75738285Y-121420952D01*
X75785904Y-121468571D01*
X75833523Y-121563809D01*
X75833523Y-121801904D01*
X75785904Y-121897142D01*
X75738285Y-121944761D01*
X75643047Y-121992380D01*
X75357333Y-121992380D01*
X75262095Y-121944761D01*
X75214476Y-121897142D01*
X76404952Y-121420952D02*
X76309714Y-121373333D01*
X76262095Y-121325714D01*
X76214476Y-121230476D01*
X76214476Y-121182857D01*
X76262095Y-121087619D01*
X76309714Y-121040000D01*
X76404952Y-120992380D01*
X76595428Y-120992380D01*
X76690666Y-121040000D01*
X76738285Y-121087619D01*
X76785904Y-121182857D01*
X76785904Y-121230476D01*
X76738285Y-121325714D01*
X76690666Y-121373333D01*
X76595428Y-121420952D01*
X76404952Y-121420952D01*
X76309714Y-121468571D01*
X76262095Y-121516190D01*
X76214476Y-121611428D01*
X76214476Y-121801904D01*
X76262095Y-121897142D01*
X76309714Y-121944761D01*
X76404952Y-121992380D01*
X76595428Y-121992380D01*
X76690666Y-121944761D01*
X76738285Y-121897142D01*
X76785904Y-121801904D01*
X76785904Y-121611428D01*
X76738285Y-121516190D01*
X76690666Y-121468571D01*
X76595428Y-121420952D01*
X59309714Y-115992380D02*
X59309714Y-114992380D01*
X59547809Y-114992380D01*
X59690666Y-115040000D01*
X59785904Y-115135238D01*
X59833523Y-115230476D01*
X59881142Y-115420952D01*
X59881142Y-115563809D01*
X59833523Y-115754285D01*
X59785904Y-115849523D01*
X59690666Y-115944761D01*
X59547809Y-115992380D01*
X59309714Y-115992380D01*
X60214476Y-114992380D02*
X60833523Y-114992380D01*
X60500190Y-115373333D01*
X60643047Y-115373333D01*
X60738285Y-115420952D01*
X60785904Y-115468571D01*
X60833523Y-115563809D01*
X60833523Y-115801904D01*
X60785904Y-115897142D01*
X60738285Y-115944761D01*
X60643047Y-115992380D01*
X60357333Y-115992380D01*
X60262095Y-115944761D01*
X60214476Y-115897142D01*
X61166857Y-114992380D02*
X61833523Y-114992380D01*
X61404952Y-115992380D01*
X44309714Y-121992380D02*
X44309714Y-120992380D01*
X44547809Y-120992380D01*
X44690666Y-121040000D01*
X44785904Y-121135238D01*
X44833523Y-121230476D01*
X44881142Y-121420952D01*
X44881142Y-121563809D01*
X44833523Y-121754285D01*
X44785904Y-121849523D01*
X44690666Y-121944761D01*
X44547809Y-121992380D01*
X44309714Y-121992380D01*
X45214476Y-120992380D02*
X45833523Y-120992380D01*
X45500190Y-121373333D01*
X45643047Y-121373333D01*
X45738285Y-121420952D01*
X45785904Y-121468571D01*
X45833523Y-121563809D01*
X45833523Y-121801904D01*
X45785904Y-121897142D01*
X45738285Y-121944761D01*
X45643047Y-121992380D01*
X45357333Y-121992380D01*
X45262095Y-121944761D01*
X45214476Y-121897142D01*
X46690666Y-120992380D02*
X46500190Y-120992380D01*
X46404952Y-121040000D01*
X46357333Y-121087619D01*
X46262095Y-121230476D01*
X46214476Y-121420952D01*
X46214476Y-121801904D01*
X46262095Y-121897142D01*
X46309714Y-121944761D01*
X46404952Y-121992380D01*
X46595428Y-121992380D01*
X46690666Y-121944761D01*
X46738285Y-121897142D01*
X46785904Y-121801904D01*
X46785904Y-121563809D01*
X46738285Y-121468571D01*
X46690666Y-121420952D01*
X46595428Y-121373333D01*
X46404952Y-121373333D01*
X46309714Y-121420952D01*
X46262095Y-121468571D01*
X46214476Y-121563809D01*
X134309714Y-106992380D02*
X134309714Y-105992380D01*
X134547809Y-105992380D01*
X134690666Y-106040000D01*
X134785904Y-106135238D01*
X134833523Y-106230476D01*
X134881142Y-106420952D01*
X134881142Y-106563809D01*
X134833523Y-106754285D01*
X134785904Y-106849523D01*
X134690666Y-106944761D01*
X134547809Y-106992380D01*
X134309714Y-106992380D01*
X135214476Y-105992380D02*
X135833523Y-105992380D01*
X135500190Y-106373333D01*
X135643047Y-106373333D01*
X135738285Y-106420952D01*
X135785904Y-106468571D01*
X135833523Y-106563809D01*
X135833523Y-106801904D01*
X135785904Y-106897142D01*
X135738285Y-106944761D01*
X135643047Y-106992380D01*
X135357333Y-106992380D01*
X135262095Y-106944761D01*
X135214476Y-106897142D01*
X136738285Y-105992380D02*
X136262095Y-105992380D01*
X136214476Y-106468571D01*
X136262095Y-106420952D01*
X136357333Y-106373333D01*
X136595428Y-106373333D01*
X136690666Y-106420952D01*
X136738285Y-106468571D01*
X136785904Y-106563809D01*
X136785904Y-106801904D01*
X136738285Y-106897142D01*
X136690666Y-106944761D01*
X136595428Y-106992380D01*
X136357333Y-106992380D01*
X136262095Y-106944761D01*
X136214476Y-106897142D01*
X119309714Y-100992380D02*
X119309714Y-99992380D01*
X119547809Y-99992380D01*
X119690666Y-100040000D01*
X119785904Y-100135238D01*
X119833523Y-100230476D01*
X119881142Y-100420952D01*
X119881142Y-100563809D01*
X119833523Y-100754285D01*
X119785904Y-100849523D01*
X119690666Y-100944761D01*
X119547809Y-100992380D01*
X119309714Y-100992380D01*
X120214476Y-99992380D02*
X120833523Y-99992380D01*
X120500190Y-100373333D01*
X120643047Y-100373333D01*
X120738285Y-100420952D01*
X120785904Y-100468571D01*
X120833523Y-100563809D01*
X120833523Y-100801904D01*
X120785904Y-100897142D01*
X120738285Y-100944761D01*
X120643047Y-100992380D01*
X120357333Y-100992380D01*
X120262095Y-100944761D01*
X120214476Y-100897142D01*
X121690666Y-100325714D02*
X121690666Y-100992380D01*
X121452571Y-99944761D02*
X121214476Y-100659047D01*
X121833523Y-100659047D01*
X104309714Y-106992380D02*
X104309714Y-105992380D01*
X104547809Y-105992380D01*
X104690666Y-106040000D01*
X104785904Y-106135238D01*
X104833523Y-106230476D01*
X104881142Y-106420952D01*
X104881142Y-106563809D01*
X104833523Y-106754285D01*
X104785904Y-106849523D01*
X104690666Y-106944761D01*
X104547809Y-106992380D01*
X104309714Y-106992380D01*
X105214476Y-105992380D02*
X105833523Y-105992380D01*
X105500190Y-106373333D01*
X105643047Y-106373333D01*
X105738285Y-106420952D01*
X105785904Y-106468571D01*
X105833523Y-106563809D01*
X105833523Y-106801904D01*
X105785904Y-106897142D01*
X105738285Y-106944761D01*
X105643047Y-106992380D01*
X105357333Y-106992380D01*
X105262095Y-106944761D01*
X105214476Y-106897142D01*
X106166857Y-105992380D02*
X106785904Y-105992380D01*
X106452571Y-106373333D01*
X106595428Y-106373333D01*
X106690666Y-106420952D01*
X106738285Y-106468571D01*
X106785904Y-106563809D01*
X106785904Y-106801904D01*
X106738285Y-106897142D01*
X106690666Y-106944761D01*
X106595428Y-106992380D01*
X106309714Y-106992380D01*
X106214476Y-106944761D01*
X106166857Y-106897142D01*
X89309714Y-100992380D02*
X89309714Y-99992380D01*
X89547809Y-99992380D01*
X89690666Y-100040000D01*
X89785904Y-100135238D01*
X89833523Y-100230476D01*
X89881142Y-100420952D01*
X89881142Y-100563809D01*
X89833523Y-100754285D01*
X89785904Y-100849523D01*
X89690666Y-100944761D01*
X89547809Y-100992380D01*
X89309714Y-100992380D01*
X90214476Y-99992380D02*
X90833523Y-99992380D01*
X90500190Y-100373333D01*
X90643047Y-100373333D01*
X90738285Y-100420952D01*
X90785904Y-100468571D01*
X90833523Y-100563809D01*
X90833523Y-100801904D01*
X90785904Y-100897142D01*
X90738285Y-100944761D01*
X90643047Y-100992380D01*
X90357333Y-100992380D01*
X90262095Y-100944761D01*
X90214476Y-100897142D01*
X91214476Y-100087619D02*
X91262095Y-100040000D01*
X91357333Y-99992380D01*
X91595428Y-99992380D01*
X91690666Y-100040000D01*
X91738285Y-100087619D01*
X91785904Y-100182857D01*
X91785904Y-100278095D01*
X91738285Y-100420952D01*
X91166857Y-100992380D01*
X91785904Y-100992380D01*
X74309714Y-106992380D02*
X74309714Y-105992380D01*
X74547809Y-105992380D01*
X74690666Y-106040000D01*
X74785904Y-106135238D01*
X74833523Y-106230476D01*
X74881142Y-106420952D01*
X74881142Y-106563809D01*
X74833523Y-106754285D01*
X74785904Y-106849523D01*
X74690666Y-106944761D01*
X74547809Y-106992380D01*
X74309714Y-106992380D01*
X75214476Y-105992380D02*
X75833523Y-105992380D01*
X75500190Y-106373333D01*
X75643047Y-106373333D01*
X75738285Y-106420952D01*
X75785904Y-106468571D01*
X75833523Y-106563809D01*
X75833523Y-106801904D01*
X75785904Y-106897142D01*
X75738285Y-106944761D01*
X75643047Y-106992380D01*
X75357333Y-106992380D01*
X75262095Y-106944761D01*
X75214476Y-106897142D01*
X76785904Y-106992380D02*
X76214476Y-106992380D01*
X76500190Y-106992380D02*
X76500190Y-105992380D01*
X76404952Y-106135238D01*
X76309714Y-106230476D01*
X76214476Y-106278095D01*
X59309714Y-100992380D02*
X59309714Y-99992380D01*
X59547809Y-99992380D01*
X59690666Y-100040000D01*
X59785904Y-100135238D01*
X59833523Y-100230476D01*
X59881142Y-100420952D01*
X59881142Y-100563809D01*
X59833523Y-100754285D01*
X59785904Y-100849523D01*
X59690666Y-100944761D01*
X59547809Y-100992380D01*
X59309714Y-100992380D01*
X60214476Y-99992380D02*
X60833523Y-99992380D01*
X60500190Y-100373333D01*
X60643047Y-100373333D01*
X60738285Y-100420952D01*
X60785904Y-100468571D01*
X60833523Y-100563809D01*
X60833523Y-100801904D01*
X60785904Y-100897142D01*
X60738285Y-100944761D01*
X60643047Y-100992380D01*
X60357333Y-100992380D01*
X60262095Y-100944761D01*
X60214476Y-100897142D01*
X61452571Y-99992380D02*
X61547809Y-99992380D01*
X61643047Y-100040000D01*
X61690666Y-100087619D01*
X61738285Y-100182857D01*
X61785904Y-100373333D01*
X61785904Y-100611428D01*
X61738285Y-100801904D01*
X61690666Y-100897142D01*
X61643047Y-100944761D01*
X61547809Y-100992380D01*
X61452571Y-100992380D01*
X61357333Y-100944761D01*
X61309714Y-100897142D01*
X61262095Y-100801904D01*
X61214476Y-100611428D01*
X61214476Y-100373333D01*
X61262095Y-100182857D01*
X61309714Y-100087619D01*
X61357333Y-100040000D01*
X61452571Y-99992380D01*
X44309714Y-106992380D02*
X44309714Y-105992380D01*
X44547809Y-105992380D01*
X44690666Y-106040000D01*
X44785904Y-106135238D01*
X44833523Y-106230476D01*
X44881142Y-106420952D01*
X44881142Y-106563809D01*
X44833523Y-106754285D01*
X44785904Y-106849523D01*
X44690666Y-106944761D01*
X44547809Y-106992380D01*
X44309714Y-106992380D01*
X45262095Y-106087619D02*
X45309714Y-106040000D01*
X45404952Y-105992380D01*
X45643047Y-105992380D01*
X45738285Y-106040000D01*
X45785904Y-106087619D01*
X45833523Y-106182857D01*
X45833523Y-106278095D01*
X45785904Y-106420952D01*
X45214476Y-106992380D01*
X45833523Y-106992380D01*
X46309714Y-106992380D02*
X46500190Y-106992380D01*
X46595428Y-106944761D01*
X46643047Y-106897142D01*
X46738285Y-106754285D01*
X46785904Y-106563809D01*
X46785904Y-106182857D01*
X46738285Y-106087619D01*
X46690666Y-106040000D01*
X46595428Y-105992380D01*
X46404952Y-105992380D01*
X46309714Y-106040000D01*
X46262095Y-106087619D01*
X46214476Y-106182857D01*
X46214476Y-106420952D01*
X46262095Y-106516190D01*
X46309714Y-106563809D01*
X46404952Y-106611428D01*
X46595428Y-106611428D01*
X46690666Y-106563809D01*
X46738285Y-106516190D01*
X46785904Y-106420952D01*
X134309714Y-91992380D02*
X134309714Y-90992380D01*
X134547809Y-90992380D01*
X134690666Y-91040000D01*
X134785904Y-91135238D01*
X134833523Y-91230476D01*
X134881142Y-91420952D01*
X134881142Y-91563809D01*
X134833523Y-91754285D01*
X134785904Y-91849523D01*
X134690666Y-91944761D01*
X134547809Y-91992380D01*
X134309714Y-91992380D01*
X135262095Y-91087619D02*
X135309714Y-91040000D01*
X135404952Y-90992380D01*
X135643047Y-90992380D01*
X135738285Y-91040000D01*
X135785904Y-91087619D01*
X135833523Y-91182857D01*
X135833523Y-91278095D01*
X135785904Y-91420952D01*
X135214476Y-91992380D01*
X135833523Y-91992380D01*
X136404952Y-91420952D02*
X136309714Y-91373333D01*
X136262095Y-91325714D01*
X136214476Y-91230476D01*
X136214476Y-91182857D01*
X136262095Y-91087619D01*
X136309714Y-91040000D01*
X136404952Y-90992380D01*
X136595428Y-90992380D01*
X136690666Y-91040000D01*
X136738285Y-91087619D01*
X136785904Y-91182857D01*
X136785904Y-91230476D01*
X136738285Y-91325714D01*
X136690666Y-91373333D01*
X136595428Y-91420952D01*
X136404952Y-91420952D01*
X136309714Y-91468571D01*
X136262095Y-91516190D01*
X136214476Y-91611428D01*
X136214476Y-91801904D01*
X136262095Y-91897142D01*
X136309714Y-91944761D01*
X136404952Y-91992380D01*
X136595428Y-91992380D01*
X136690666Y-91944761D01*
X136738285Y-91897142D01*
X136785904Y-91801904D01*
X136785904Y-91611428D01*
X136738285Y-91516190D01*
X136690666Y-91468571D01*
X136595428Y-91420952D01*
X119309714Y-85992380D02*
X119309714Y-84992380D01*
X119547809Y-84992380D01*
X119690666Y-85040000D01*
X119785904Y-85135238D01*
X119833523Y-85230476D01*
X119881142Y-85420952D01*
X119881142Y-85563809D01*
X119833523Y-85754285D01*
X119785904Y-85849523D01*
X119690666Y-85944761D01*
X119547809Y-85992380D01*
X119309714Y-85992380D01*
X120262095Y-85087619D02*
X120309714Y-85040000D01*
X120404952Y-84992380D01*
X120643047Y-84992380D01*
X120738285Y-85040000D01*
X120785904Y-85087619D01*
X120833523Y-85182857D01*
X120833523Y-85278095D01*
X120785904Y-85420952D01*
X120214476Y-85992380D01*
X120833523Y-85992380D01*
X121166857Y-84992380D02*
X121833523Y-84992380D01*
X121404952Y-85992380D01*
X104309714Y-91992380D02*
X104309714Y-90992380D01*
X104547809Y-90992380D01*
X104690666Y-91040000D01*
X104785904Y-91135238D01*
X104833523Y-91230476D01*
X104881142Y-91420952D01*
X104881142Y-91563809D01*
X104833523Y-91754285D01*
X104785904Y-91849523D01*
X104690666Y-91944761D01*
X104547809Y-91992380D01*
X104309714Y-91992380D01*
X105262095Y-91087619D02*
X105309714Y-91040000D01*
X105404952Y-90992380D01*
X105643047Y-90992380D01*
X105738285Y-91040000D01*
X105785904Y-91087619D01*
X105833523Y-91182857D01*
X105833523Y-91278095D01*
X105785904Y-91420952D01*
X105214476Y-91992380D01*
X105833523Y-91992380D01*
X106690666Y-90992380D02*
X106500190Y-90992380D01*
X106404952Y-91040000D01*
X106357333Y-91087619D01*
X106262095Y-91230476D01*
X106214476Y-91420952D01*
X106214476Y-91801904D01*
X106262095Y-91897142D01*
X106309714Y-91944761D01*
X106404952Y-91992380D01*
X106595428Y-91992380D01*
X106690666Y-91944761D01*
X106738285Y-91897142D01*
X106785904Y-91801904D01*
X106785904Y-91563809D01*
X106738285Y-91468571D01*
X106690666Y-91420952D01*
X106595428Y-91373333D01*
X106404952Y-91373333D01*
X106309714Y-91420952D01*
X106262095Y-91468571D01*
X106214476Y-91563809D01*
X89309714Y-85992380D02*
X89309714Y-84992380D01*
X89547809Y-84992380D01*
X89690666Y-85040000D01*
X89785904Y-85135238D01*
X89833523Y-85230476D01*
X89881142Y-85420952D01*
X89881142Y-85563809D01*
X89833523Y-85754285D01*
X89785904Y-85849523D01*
X89690666Y-85944761D01*
X89547809Y-85992380D01*
X89309714Y-85992380D01*
X90262095Y-85087619D02*
X90309714Y-85040000D01*
X90404952Y-84992380D01*
X90643047Y-84992380D01*
X90738285Y-85040000D01*
X90785904Y-85087619D01*
X90833523Y-85182857D01*
X90833523Y-85278095D01*
X90785904Y-85420952D01*
X90214476Y-85992380D01*
X90833523Y-85992380D01*
X91738285Y-84992380D02*
X91262095Y-84992380D01*
X91214476Y-85468571D01*
X91262095Y-85420952D01*
X91357333Y-85373333D01*
X91595428Y-85373333D01*
X91690666Y-85420952D01*
X91738285Y-85468571D01*
X91785904Y-85563809D01*
X91785904Y-85801904D01*
X91738285Y-85897142D01*
X91690666Y-85944761D01*
X91595428Y-85992380D01*
X91357333Y-85992380D01*
X91262095Y-85944761D01*
X91214476Y-85897142D01*
X74309714Y-91992380D02*
X74309714Y-90992380D01*
X74547809Y-90992380D01*
X74690666Y-91040000D01*
X74785904Y-91135238D01*
X74833523Y-91230476D01*
X74881142Y-91420952D01*
X74881142Y-91563809D01*
X74833523Y-91754285D01*
X74785904Y-91849523D01*
X74690666Y-91944761D01*
X74547809Y-91992380D01*
X74309714Y-91992380D01*
X75262095Y-91087619D02*
X75309714Y-91040000D01*
X75404952Y-90992380D01*
X75643047Y-90992380D01*
X75738285Y-91040000D01*
X75785904Y-91087619D01*
X75833523Y-91182857D01*
X75833523Y-91278095D01*
X75785904Y-91420952D01*
X75214476Y-91992380D01*
X75833523Y-91992380D01*
X76690666Y-91325714D02*
X76690666Y-91992380D01*
X76452571Y-90944761D02*
X76214476Y-91659047D01*
X76833523Y-91659047D01*
X59309714Y-85992380D02*
X59309714Y-84992380D01*
X59547809Y-84992380D01*
X59690666Y-85040000D01*
X59785904Y-85135238D01*
X59833523Y-85230476D01*
X59881142Y-85420952D01*
X59881142Y-85563809D01*
X59833523Y-85754285D01*
X59785904Y-85849523D01*
X59690666Y-85944761D01*
X59547809Y-85992380D01*
X59309714Y-85992380D01*
X60262095Y-85087619D02*
X60309714Y-85040000D01*
X60404952Y-84992380D01*
X60643047Y-84992380D01*
X60738285Y-85040000D01*
X60785904Y-85087619D01*
X60833523Y-85182857D01*
X60833523Y-85278095D01*
X60785904Y-85420952D01*
X60214476Y-85992380D01*
X60833523Y-85992380D01*
X61166857Y-84992380D02*
X61785904Y-84992380D01*
X61452571Y-85373333D01*
X61595428Y-85373333D01*
X61690666Y-85420952D01*
X61738285Y-85468571D01*
X61785904Y-85563809D01*
X61785904Y-85801904D01*
X61738285Y-85897142D01*
X61690666Y-85944761D01*
X61595428Y-85992380D01*
X61309714Y-85992380D01*
X61214476Y-85944761D01*
X61166857Y-85897142D01*
X44309714Y-91992380D02*
X44309714Y-90992380D01*
X44547809Y-90992380D01*
X44690666Y-91040000D01*
X44785904Y-91135238D01*
X44833523Y-91230476D01*
X44881142Y-91420952D01*
X44881142Y-91563809D01*
X44833523Y-91754285D01*
X44785904Y-91849523D01*
X44690666Y-91944761D01*
X44547809Y-91992380D01*
X44309714Y-91992380D01*
X45262095Y-91087619D02*
X45309714Y-91040000D01*
X45404952Y-90992380D01*
X45643047Y-90992380D01*
X45738285Y-91040000D01*
X45785904Y-91087619D01*
X45833523Y-91182857D01*
X45833523Y-91278095D01*
X45785904Y-91420952D01*
X45214476Y-91992380D01*
X45833523Y-91992380D01*
X46214476Y-91087619D02*
X46262095Y-91040000D01*
X46357333Y-90992380D01*
X46595428Y-90992380D01*
X46690666Y-91040000D01*
X46738285Y-91087619D01*
X46785904Y-91182857D01*
X46785904Y-91278095D01*
X46738285Y-91420952D01*
X46166857Y-91992380D01*
X46785904Y-91992380D01*
X134309714Y-76992380D02*
X134309714Y-75992380D01*
X134547809Y-75992380D01*
X134690666Y-76040000D01*
X134785904Y-76135238D01*
X134833523Y-76230476D01*
X134881142Y-76420952D01*
X134881142Y-76563809D01*
X134833523Y-76754285D01*
X134785904Y-76849523D01*
X134690666Y-76944761D01*
X134547809Y-76992380D01*
X134309714Y-76992380D01*
X135262095Y-76087619D02*
X135309714Y-76040000D01*
X135404952Y-75992380D01*
X135643047Y-75992380D01*
X135738285Y-76040000D01*
X135785904Y-76087619D01*
X135833523Y-76182857D01*
X135833523Y-76278095D01*
X135785904Y-76420952D01*
X135214476Y-76992380D01*
X135833523Y-76992380D01*
X136785904Y-76992380D02*
X136214476Y-76992380D01*
X136500190Y-76992380D02*
X136500190Y-75992380D01*
X136404952Y-76135238D01*
X136309714Y-76230476D01*
X136214476Y-76278095D01*
X119309714Y-70992380D02*
X119309714Y-69992380D01*
X119547809Y-69992380D01*
X119690666Y-70040000D01*
X119785904Y-70135238D01*
X119833523Y-70230476D01*
X119881142Y-70420952D01*
X119881142Y-70563809D01*
X119833523Y-70754285D01*
X119785904Y-70849523D01*
X119690666Y-70944761D01*
X119547809Y-70992380D01*
X119309714Y-70992380D01*
X120262095Y-70087619D02*
X120309714Y-70040000D01*
X120404952Y-69992380D01*
X120643047Y-69992380D01*
X120738285Y-70040000D01*
X120785904Y-70087619D01*
X120833523Y-70182857D01*
X120833523Y-70278095D01*
X120785904Y-70420952D01*
X120214476Y-70992380D01*
X120833523Y-70992380D01*
X121452571Y-69992380D02*
X121547809Y-69992380D01*
X121643047Y-70040000D01*
X121690666Y-70087619D01*
X121738285Y-70182857D01*
X121785904Y-70373333D01*
X121785904Y-70611428D01*
X121738285Y-70801904D01*
X121690666Y-70897142D01*
X121643047Y-70944761D01*
X121547809Y-70992380D01*
X121452571Y-70992380D01*
X121357333Y-70944761D01*
X121309714Y-70897142D01*
X121262095Y-70801904D01*
X121214476Y-70611428D01*
X121214476Y-70373333D01*
X121262095Y-70182857D01*
X121309714Y-70087619D01*
X121357333Y-70040000D01*
X121452571Y-69992380D01*
X104309714Y-76992380D02*
X104309714Y-75992380D01*
X104547809Y-75992380D01*
X104690666Y-76040000D01*
X104785904Y-76135238D01*
X104833523Y-76230476D01*
X104881142Y-76420952D01*
X104881142Y-76563809D01*
X104833523Y-76754285D01*
X104785904Y-76849523D01*
X104690666Y-76944761D01*
X104547809Y-76992380D01*
X104309714Y-76992380D01*
X105833523Y-76992380D02*
X105262095Y-76992380D01*
X105547809Y-76992380D02*
X105547809Y-75992380D01*
X105452571Y-76135238D01*
X105357333Y-76230476D01*
X105262095Y-76278095D01*
X106309714Y-76992380D02*
X106500190Y-76992380D01*
X106595428Y-76944761D01*
X106643047Y-76897142D01*
X106738285Y-76754285D01*
X106785904Y-76563809D01*
X106785904Y-76182857D01*
X106738285Y-76087619D01*
X106690666Y-76040000D01*
X106595428Y-75992380D01*
X106404952Y-75992380D01*
X106309714Y-76040000D01*
X106262095Y-76087619D01*
X106214476Y-76182857D01*
X106214476Y-76420952D01*
X106262095Y-76516190D01*
X106309714Y-76563809D01*
X106404952Y-76611428D01*
X106595428Y-76611428D01*
X106690666Y-76563809D01*
X106738285Y-76516190D01*
X106785904Y-76420952D01*
X89309714Y-70992380D02*
X89309714Y-69992380D01*
X89547809Y-69992380D01*
X89690666Y-70040000D01*
X89785904Y-70135238D01*
X89833523Y-70230476D01*
X89881142Y-70420952D01*
X89881142Y-70563809D01*
X89833523Y-70754285D01*
X89785904Y-70849523D01*
X89690666Y-70944761D01*
X89547809Y-70992380D01*
X89309714Y-70992380D01*
X90833523Y-70992380D02*
X90262095Y-70992380D01*
X90547809Y-70992380D02*
X90547809Y-69992380D01*
X90452571Y-70135238D01*
X90357333Y-70230476D01*
X90262095Y-70278095D01*
X91404952Y-70420952D02*
X91309714Y-70373333D01*
X91262095Y-70325714D01*
X91214476Y-70230476D01*
X91214476Y-70182857D01*
X91262095Y-70087619D01*
X91309714Y-70040000D01*
X91404952Y-69992380D01*
X91595428Y-69992380D01*
X91690666Y-70040000D01*
X91738285Y-70087619D01*
X91785904Y-70182857D01*
X91785904Y-70230476D01*
X91738285Y-70325714D01*
X91690666Y-70373333D01*
X91595428Y-70420952D01*
X91404952Y-70420952D01*
X91309714Y-70468571D01*
X91262095Y-70516190D01*
X91214476Y-70611428D01*
X91214476Y-70801904D01*
X91262095Y-70897142D01*
X91309714Y-70944761D01*
X91404952Y-70992380D01*
X91595428Y-70992380D01*
X91690666Y-70944761D01*
X91738285Y-70897142D01*
X91785904Y-70801904D01*
X91785904Y-70611428D01*
X91738285Y-70516190D01*
X91690666Y-70468571D01*
X91595428Y-70420952D01*
X74309714Y-76992380D02*
X74309714Y-75992380D01*
X74547809Y-75992380D01*
X74690666Y-76040000D01*
X74785904Y-76135238D01*
X74833523Y-76230476D01*
X74881142Y-76420952D01*
X74881142Y-76563809D01*
X74833523Y-76754285D01*
X74785904Y-76849523D01*
X74690666Y-76944761D01*
X74547809Y-76992380D01*
X74309714Y-76992380D01*
X75833523Y-76992380D02*
X75262095Y-76992380D01*
X75547809Y-76992380D02*
X75547809Y-75992380D01*
X75452571Y-76135238D01*
X75357333Y-76230476D01*
X75262095Y-76278095D01*
X76166857Y-75992380D02*
X76833523Y-75992380D01*
X76404952Y-76992380D01*
X59309714Y-70992380D02*
X59309714Y-69992380D01*
X59547809Y-69992380D01*
X59690666Y-70040000D01*
X59785904Y-70135238D01*
X59833523Y-70230476D01*
X59881142Y-70420952D01*
X59881142Y-70563809D01*
X59833523Y-70754285D01*
X59785904Y-70849523D01*
X59690666Y-70944761D01*
X59547809Y-70992380D01*
X59309714Y-70992380D01*
X60833523Y-70992380D02*
X60262095Y-70992380D01*
X60547809Y-70992380D02*
X60547809Y-69992380D01*
X60452571Y-70135238D01*
X60357333Y-70230476D01*
X60262095Y-70278095D01*
X61690666Y-69992380D02*
X61500190Y-69992380D01*
X61404952Y-70040000D01*
X61357333Y-70087619D01*
X61262095Y-70230476D01*
X61214476Y-70420952D01*
X61214476Y-70801904D01*
X61262095Y-70897142D01*
X61309714Y-70944761D01*
X61404952Y-70992380D01*
X61595428Y-70992380D01*
X61690666Y-70944761D01*
X61738285Y-70897142D01*
X61785904Y-70801904D01*
X61785904Y-70563809D01*
X61738285Y-70468571D01*
X61690666Y-70420952D01*
X61595428Y-70373333D01*
X61404952Y-70373333D01*
X61309714Y-70420952D01*
X61262095Y-70468571D01*
X61214476Y-70563809D01*
X44309714Y-76992380D02*
X44309714Y-75992380D01*
X44547809Y-75992380D01*
X44690666Y-76040000D01*
X44785904Y-76135238D01*
X44833523Y-76230476D01*
X44881142Y-76420952D01*
X44881142Y-76563809D01*
X44833523Y-76754285D01*
X44785904Y-76849523D01*
X44690666Y-76944761D01*
X44547809Y-76992380D01*
X44309714Y-76992380D01*
X45833523Y-76992380D02*
X45262095Y-76992380D01*
X45547809Y-76992380D02*
X45547809Y-75992380D01*
X45452571Y-76135238D01*
X45357333Y-76230476D01*
X45262095Y-76278095D01*
X46738285Y-75992380D02*
X46262095Y-75992380D01*
X46214476Y-76468571D01*
X46262095Y-76420952D01*
X46357333Y-76373333D01*
X46595428Y-76373333D01*
X46690666Y-76420952D01*
X46738285Y-76468571D01*
X46785904Y-76563809D01*
X46785904Y-76801904D01*
X46738285Y-76897142D01*
X46690666Y-76944761D01*
X46595428Y-76992380D01*
X46357333Y-76992380D01*
X46262095Y-76944761D01*
X46214476Y-76897142D01*
X134309714Y-61992380D02*
X134309714Y-60992380D01*
X134547809Y-60992380D01*
X134690666Y-61040000D01*
X134785904Y-61135238D01*
X134833523Y-61230476D01*
X134881142Y-61420952D01*
X134881142Y-61563809D01*
X134833523Y-61754285D01*
X134785904Y-61849523D01*
X134690666Y-61944761D01*
X134547809Y-61992380D01*
X134309714Y-61992380D01*
X135833523Y-61992380D02*
X135262095Y-61992380D01*
X135547809Y-61992380D02*
X135547809Y-60992380D01*
X135452571Y-61135238D01*
X135357333Y-61230476D01*
X135262095Y-61278095D01*
X136690666Y-61325714D02*
X136690666Y-61992380D01*
X136452571Y-60944761D02*
X136214476Y-61659047D01*
X136833523Y-61659047D01*
X119309714Y-55992380D02*
X119309714Y-54992380D01*
X119547809Y-54992380D01*
X119690666Y-55040000D01*
X119785904Y-55135238D01*
X119833523Y-55230476D01*
X119881142Y-55420952D01*
X119881142Y-55563809D01*
X119833523Y-55754285D01*
X119785904Y-55849523D01*
X119690666Y-55944761D01*
X119547809Y-55992380D01*
X119309714Y-55992380D01*
X120833523Y-55992380D02*
X120262095Y-55992380D01*
X120547809Y-55992380D02*
X120547809Y-54992380D01*
X120452571Y-55135238D01*
X120357333Y-55230476D01*
X120262095Y-55278095D01*
X121166857Y-54992380D02*
X121785904Y-54992380D01*
X121452571Y-55373333D01*
X121595428Y-55373333D01*
X121690666Y-55420952D01*
X121738285Y-55468571D01*
X121785904Y-55563809D01*
X121785904Y-55801904D01*
X121738285Y-55897142D01*
X121690666Y-55944761D01*
X121595428Y-55992380D01*
X121309714Y-55992380D01*
X121214476Y-55944761D01*
X121166857Y-55897142D01*
X104309714Y-61992380D02*
X104309714Y-60992380D01*
X104547809Y-60992380D01*
X104690666Y-61040000D01*
X104785904Y-61135238D01*
X104833523Y-61230476D01*
X104881142Y-61420952D01*
X104881142Y-61563809D01*
X104833523Y-61754285D01*
X104785904Y-61849523D01*
X104690666Y-61944761D01*
X104547809Y-61992380D01*
X104309714Y-61992380D01*
X105833523Y-61992380D02*
X105262095Y-61992380D01*
X105547809Y-61992380D02*
X105547809Y-60992380D01*
X105452571Y-61135238D01*
X105357333Y-61230476D01*
X105262095Y-61278095D01*
X106214476Y-61087619D02*
X106262095Y-61040000D01*
X106357333Y-60992380D01*
X106595428Y-60992380D01*
X106690666Y-61040000D01*
X106738285Y-61087619D01*
X106785904Y-61182857D01*
X106785904Y-61278095D01*
X106738285Y-61420952D01*
X106166857Y-61992380D01*
X106785904Y-61992380D01*
X89309714Y-55992380D02*
X89309714Y-54992380D01*
X89547809Y-54992380D01*
X89690666Y-55040000D01*
X89785904Y-55135238D01*
X89833523Y-55230476D01*
X89881142Y-55420952D01*
X89881142Y-55563809D01*
X89833523Y-55754285D01*
X89785904Y-55849523D01*
X89690666Y-55944761D01*
X89547809Y-55992380D01*
X89309714Y-55992380D01*
X90833523Y-55992380D02*
X90262095Y-55992380D01*
X90547809Y-55992380D02*
X90547809Y-54992380D01*
X90452571Y-55135238D01*
X90357333Y-55230476D01*
X90262095Y-55278095D01*
X91785904Y-55992380D02*
X91214476Y-55992380D01*
X91500190Y-55992380D02*
X91500190Y-54992380D01*
X91404952Y-55135238D01*
X91309714Y-55230476D01*
X91214476Y-55278095D01*
X74309714Y-61992380D02*
X74309714Y-60992380D01*
X74547809Y-60992380D01*
X74690666Y-61040000D01*
X74785904Y-61135238D01*
X74833523Y-61230476D01*
X74881142Y-61420952D01*
X74881142Y-61563809D01*
X74833523Y-61754285D01*
X74785904Y-61849523D01*
X74690666Y-61944761D01*
X74547809Y-61992380D01*
X74309714Y-61992380D01*
X75833523Y-61992380D02*
X75262095Y-61992380D01*
X75547809Y-61992380D02*
X75547809Y-60992380D01*
X75452571Y-61135238D01*
X75357333Y-61230476D01*
X75262095Y-61278095D01*
X76452571Y-60992380D02*
X76547809Y-60992380D01*
X76643047Y-61040000D01*
X76690666Y-61087619D01*
X76738285Y-61182857D01*
X76785904Y-61373333D01*
X76785904Y-61611428D01*
X76738285Y-61801904D01*
X76690666Y-61897142D01*
X76643047Y-61944761D01*
X76547809Y-61992380D01*
X76452571Y-61992380D01*
X76357333Y-61944761D01*
X76309714Y-61897142D01*
X76262095Y-61801904D01*
X76214476Y-61611428D01*
X76214476Y-61373333D01*
X76262095Y-61182857D01*
X76309714Y-61087619D01*
X76357333Y-61040000D01*
X76452571Y-60992380D01*
X59785904Y-55992380D02*
X59785904Y-54992380D01*
X60024000Y-54992380D01*
X60166857Y-55040000D01*
X60262095Y-55135238D01*
X60309714Y-55230476D01*
X60357333Y-55420952D01*
X60357333Y-55563809D01*
X60309714Y-55754285D01*
X60262095Y-55849523D01*
X60166857Y-55944761D01*
X60024000Y-55992380D01*
X59785904Y-55992380D01*
X60833523Y-55992380D02*
X61024000Y-55992380D01*
X61119238Y-55944761D01*
X61166857Y-55897142D01*
X61262095Y-55754285D01*
X61309714Y-55563809D01*
X61309714Y-55182857D01*
X61262095Y-55087619D01*
X61214476Y-55040000D01*
X61119238Y-54992380D01*
X60928761Y-54992380D01*
X60833523Y-55040000D01*
X60785904Y-55087619D01*
X60738285Y-55182857D01*
X60738285Y-55420952D01*
X60785904Y-55516190D01*
X60833523Y-55563809D01*
X60928761Y-55611428D01*
X61119238Y-55611428D01*
X61214476Y-55563809D01*
X61262095Y-55516190D01*
X61309714Y-55420952D01*
X44778704Y-61986680D02*
X44778704Y-60986680D01*
X45016800Y-60986680D01*
X45159657Y-61034300D01*
X45254895Y-61129538D01*
X45302514Y-61224776D01*
X45350133Y-61415252D01*
X45350133Y-61558109D01*
X45302514Y-61748585D01*
X45254895Y-61843823D01*
X45159657Y-61939061D01*
X45016800Y-61986680D01*
X44778704Y-61986680D01*
X45921561Y-61415252D02*
X45826323Y-61367633D01*
X45778704Y-61320014D01*
X45731085Y-61224776D01*
X45731085Y-61177157D01*
X45778704Y-61081919D01*
X45826323Y-61034300D01*
X45921561Y-60986680D01*
X46112038Y-60986680D01*
X46207276Y-61034300D01*
X46254895Y-61081919D01*
X46302514Y-61177157D01*
X46302514Y-61224776D01*
X46254895Y-61320014D01*
X46207276Y-61367633D01*
X46112038Y-61415252D01*
X45921561Y-61415252D01*
X45826323Y-61462871D01*
X45778704Y-61510490D01*
X45731085Y-61605728D01*
X45731085Y-61796204D01*
X45778704Y-61891442D01*
X45826323Y-61939061D01*
X45921561Y-61986680D01*
X46112038Y-61986680D01*
X46207276Y-61939061D01*
X46254895Y-61891442D01*
X46302514Y-61796204D01*
X46302514Y-61605728D01*
X46254895Y-61510490D01*
X46207276Y-61462871D01*
X46112038Y-61415252D01*
X134785904Y-46992380D02*
X134785904Y-45992380D01*
X135024000Y-45992380D01*
X135166857Y-46040000D01*
X135262095Y-46135238D01*
X135309714Y-46230476D01*
X135357333Y-46420952D01*
X135357333Y-46563809D01*
X135309714Y-46754285D01*
X135262095Y-46849523D01*
X135166857Y-46944761D01*
X135024000Y-46992380D01*
X134785904Y-46992380D01*
X135690666Y-45992380D02*
X136357333Y-45992380D01*
X135928761Y-46992380D01*
X119785904Y-40992380D02*
X119785904Y-39992380D01*
X120024000Y-39992380D01*
X120166857Y-40040000D01*
X120262095Y-40135238D01*
X120309714Y-40230476D01*
X120357333Y-40420952D01*
X120357333Y-40563809D01*
X120309714Y-40754285D01*
X120262095Y-40849523D01*
X120166857Y-40944761D01*
X120024000Y-40992380D01*
X119785904Y-40992380D01*
X121214476Y-39992380D02*
X121024000Y-39992380D01*
X120928761Y-40040000D01*
X120881142Y-40087619D01*
X120785904Y-40230476D01*
X120738285Y-40420952D01*
X120738285Y-40801904D01*
X120785904Y-40897142D01*
X120833523Y-40944761D01*
X120928761Y-40992380D01*
X121119238Y-40992380D01*
X121214476Y-40944761D01*
X121262095Y-40897142D01*
X121309714Y-40801904D01*
X121309714Y-40563809D01*
X121262095Y-40468571D01*
X121214476Y-40420952D01*
X121119238Y-40373333D01*
X120928761Y-40373333D01*
X120833523Y-40420952D01*
X120785904Y-40468571D01*
X120738285Y-40563809D01*
X104785904Y-46992380D02*
X104785904Y-45992380D01*
X105024000Y-45992380D01*
X105166857Y-46040000D01*
X105262095Y-46135238D01*
X105309714Y-46230476D01*
X105357333Y-46420952D01*
X105357333Y-46563809D01*
X105309714Y-46754285D01*
X105262095Y-46849523D01*
X105166857Y-46944761D01*
X105024000Y-46992380D01*
X104785904Y-46992380D01*
X106262095Y-45992380D02*
X105785904Y-45992380D01*
X105738285Y-46468571D01*
X105785904Y-46420952D01*
X105881142Y-46373333D01*
X106119238Y-46373333D01*
X106214476Y-46420952D01*
X106262095Y-46468571D01*
X106309714Y-46563809D01*
X106309714Y-46801904D01*
X106262095Y-46897142D01*
X106214476Y-46944761D01*
X106119238Y-46992380D01*
X105881142Y-46992380D01*
X105785904Y-46944761D01*
X105738285Y-46897142D01*
X89785904Y-40992380D02*
X89785904Y-39992380D01*
X90024000Y-39992380D01*
X90166857Y-40040000D01*
X90262095Y-40135238D01*
X90309714Y-40230476D01*
X90357333Y-40420952D01*
X90357333Y-40563809D01*
X90309714Y-40754285D01*
X90262095Y-40849523D01*
X90166857Y-40944761D01*
X90024000Y-40992380D01*
X89785904Y-40992380D01*
X91214476Y-40325714D02*
X91214476Y-40992380D01*
X90976380Y-39944761D02*
X90738285Y-40659047D01*
X91357333Y-40659047D01*
X74785904Y-46992380D02*
X74785904Y-45992380D01*
X75024000Y-45992380D01*
X75166857Y-46040000D01*
X75262095Y-46135238D01*
X75309714Y-46230476D01*
X75357333Y-46420952D01*
X75357333Y-46563809D01*
X75309714Y-46754285D01*
X75262095Y-46849523D01*
X75166857Y-46944761D01*
X75024000Y-46992380D01*
X74785904Y-46992380D01*
X75690666Y-45992380D02*
X76309714Y-45992380D01*
X75976380Y-46373333D01*
X76119238Y-46373333D01*
X76214476Y-46420952D01*
X76262095Y-46468571D01*
X76309714Y-46563809D01*
X76309714Y-46801904D01*
X76262095Y-46897142D01*
X76214476Y-46944761D01*
X76119238Y-46992380D01*
X75833523Y-46992380D01*
X75738285Y-46944761D01*
X75690666Y-46897142D01*
X59785904Y-40992380D02*
X59785904Y-39992380D01*
X60024000Y-39992380D01*
X60166857Y-40040000D01*
X60262095Y-40135238D01*
X60309714Y-40230476D01*
X60357333Y-40420952D01*
X60357333Y-40563809D01*
X60309714Y-40754285D01*
X60262095Y-40849523D01*
X60166857Y-40944761D01*
X60024000Y-40992380D01*
X59785904Y-40992380D01*
X60738285Y-40087619D02*
X60785904Y-40040000D01*
X60881142Y-39992380D01*
X61119238Y-39992380D01*
X61214476Y-40040000D01*
X61262095Y-40087619D01*
X61309714Y-40182857D01*
X61309714Y-40278095D01*
X61262095Y-40420952D01*
X60690666Y-40992380D01*
X61309714Y-40992380D01*
X44785904Y-46992380D02*
X44785904Y-45992380D01*
X45024000Y-45992380D01*
X45166857Y-46040000D01*
X45262095Y-46135238D01*
X45309714Y-46230476D01*
X45357333Y-46420952D01*
X45357333Y-46563809D01*
X45309714Y-46754285D01*
X45262095Y-46849523D01*
X45166857Y-46944761D01*
X45024000Y-46992380D01*
X44785904Y-46992380D01*
X46309714Y-46992380D02*
X45738285Y-46992380D01*
X46024000Y-46992380D02*
X46024000Y-45992380D01*
X45928761Y-46135238D01*
X45833523Y-46230476D01*
X45738285Y-46278095D01*
M02*
