G04 #@! TF.GenerationSoftware,KiCad,Pcbnew,(5.1.4)-1*
G04 #@! TF.CreationDate,2020-03-11T17:01:30-07:00*
G04 #@! TF.ProjectId,mouse led array,6d6f7573-6520-46c6-9564-206172726179,rev?*
G04 #@! TF.SameCoordinates,Original*
G04 #@! TF.FileFunction,Copper,L1,Top*
G04 #@! TF.FilePolarity,Positive*
%FSLAX46Y46*%
G04 Gerber Fmt 4.6, Leading zero omitted, Abs format (unit mm)*
G04 Created by KiCad (PCBNEW (5.1.4)-1) date 2020-03-11 17:01:30*
%MOMM*%
%LPD*%
G04 APERTURE LIST*
%ADD10R,2.700000X1.000000*%
%ADD11R,2.700000X0.500000*%
%ADD12C,1.000000*%
%ADD13C,0.100000*%
%ADD14C,6.500000*%
%ADD15C,0.250000*%
%ADD16C,2.000000*%
G04 APERTURE END LIST*
D10*
X135524000Y-133540000D03*
D11*
X135524000Y-132440000D03*
X135524000Y-134640000D03*
D12*
X135524000Y-133540000D03*
D13*
G36*
X131524000Y-132190000D02*
G01*
X134174000Y-133040000D01*
X136874000Y-133040000D01*
X139524000Y-132190000D01*
X139524000Y-134890000D01*
X136874000Y-134040000D01*
X134174000Y-134040000D01*
X131524000Y-134890000D01*
X131524000Y-132190000D01*
X131524000Y-132190000D01*
G37*
D10*
X120524000Y-133540000D03*
D11*
X120524000Y-134640000D03*
X120524000Y-132440000D03*
D12*
X120524000Y-133540000D03*
D13*
G36*
X124524000Y-134890000D02*
G01*
X121874000Y-134040000D01*
X119174000Y-134040000D01*
X116524000Y-134890000D01*
X116524000Y-132190000D01*
X119174000Y-133040000D01*
X121874000Y-133040000D01*
X124524000Y-132190000D01*
X124524000Y-134890000D01*
X124524000Y-134890000D01*
G37*
D10*
X105524000Y-133540000D03*
D11*
X105524000Y-132440000D03*
X105524000Y-134640000D03*
D12*
X105524000Y-133540000D03*
D13*
G36*
X101524000Y-132190000D02*
G01*
X104174000Y-133040000D01*
X106874000Y-133040000D01*
X109524000Y-132190000D01*
X109524000Y-134890000D01*
X106874000Y-134040000D01*
X104174000Y-134040000D01*
X101524000Y-134890000D01*
X101524000Y-132190000D01*
X101524000Y-132190000D01*
G37*
D10*
X90524000Y-133540000D03*
D11*
X90524000Y-134640000D03*
X90524000Y-132440000D03*
D12*
X90524000Y-133540000D03*
D13*
G36*
X94524000Y-134890000D02*
G01*
X91874000Y-134040000D01*
X89174000Y-134040000D01*
X86524000Y-134890000D01*
X86524000Y-132190000D01*
X89174000Y-133040000D01*
X91874000Y-133040000D01*
X94524000Y-132190000D01*
X94524000Y-134890000D01*
X94524000Y-134890000D01*
G37*
D10*
X75524000Y-133540000D03*
D11*
X75524000Y-132440000D03*
X75524000Y-134640000D03*
D12*
X75524000Y-133540000D03*
D13*
G36*
X71524000Y-132190000D02*
G01*
X74174000Y-133040000D01*
X76874000Y-133040000D01*
X79524000Y-132190000D01*
X79524000Y-134890000D01*
X76874000Y-134040000D01*
X74174000Y-134040000D01*
X71524000Y-134890000D01*
X71524000Y-132190000D01*
X71524000Y-132190000D01*
G37*
D10*
X60524000Y-133540000D03*
D11*
X60524000Y-134640000D03*
X60524000Y-132440000D03*
D12*
X60524000Y-133540000D03*
D13*
G36*
X64524000Y-134890000D02*
G01*
X61874000Y-134040000D01*
X59174000Y-134040000D01*
X56524000Y-134890000D01*
X56524000Y-132190000D01*
X59174000Y-133040000D01*
X61874000Y-133040000D01*
X64524000Y-132190000D01*
X64524000Y-134890000D01*
X64524000Y-134890000D01*
G37*
D10*
X45524000Y-133540000D03*
D11*
X45524000Y-132440000D03*
X45524000Y-134640000D03*
D12*
X45524000Y-133540000D03*
D13*
G36*
X41524000Y-132190000D02*
G01*
X44174000Y-133040000D01*
X46874000Y-133040000D01*
X49524000Y-132190000D01*
X49524000Y-134890000D01*
X46874000Y-134040000D01*
X44174000Y-134040000D01*
X41524000Y-134890000D01*
X41524000Y-132190000D01*
X41524000Y-132190000D01*
G37*
D10*
X135524000Y-118540000D03*
D11*
X135524000Y-117440000D03*
X135524000Y-119640000D03*
D12*
X135524000Y-118540000D03*
D13*
G36*
X131524000Y-117190000D02*
G01*
X134174000Y-118040000D01*
X136874000Y-118040000D01*
X139524000Y-117190000D01*
X139524000Y-119890000D01*
X136874000Y-119040000D01*
X134174000Y-119040000D01*
X131524000Y-119890000D01*
X131524000Y-117190000D01*
X131524000Y-117190000D01*
G37*
D10*
X120524000Y-118540000D03*
D11*
X120524000Y-119640000D03*
X120524000Y-117440000D03*
D12*
X120524000Y-118540000D03*
D13*
G36*
X124524000Y-119890000D02*
G01*
X121874000Y-119040000D01*
X119174000Y-119040000D01*
X116524000Y-119890000D01*
X116524000Y-117190000D01*
X119174000Y-118040000D01*
X121874000Y-118040000D01*
X124524000Y-117190000D01*
X124524000Y-119890000D01*
X124524000Y-119890000D01*
G37*
D10*
X105524000Y-118540000D03*
D11*
X105524000Y-117440000D03*
X105524000Y-119640000D03*
D12*
X105524000Y-118540000D03*
D13*
G36*
X101524000Y-117190000D02*
G01*
X104174000Y-118040000D01*
X106874000Y-118040000D01*
X109524000Y-117190000D01*
X109524000Y-119890000D01*
X106874000Y-119040000D01*
X104174000Y-119040000D01*
X101524000Y-119890000D01*
X101524000Y-117190000D01*
X101524000Y-117190000D01*
G37*
D10*
X90524000Y-118540000D03*
D11*
X90524000Y-119640000D03*
X90524000Y-117440000D03*
D12*
X90524000Y-118540000D03*
D13*
G36*
X94524000Y-119890000D02*
G01*
X91874000Y-119040000D01*
X89174000Y-119040000D01*
X86524000Y-119890000D01*
X86524000Y-117190000D01*
X89174000Y-118040000D01*
X91874000Y-118040000D01*
X94524000Y-117190000D01*
X94524000Y-119890000D01*
X94524000Y-119890000D01*
G37*
D10*
X75524000Y-118540000D03*
D11*
X75524000Y-117440000D03*
X75524000Y-119640000D03*
D12*
X75524000Y-118540000D03*
D13*
G36*
X71524000Y-117190000D02*
G01*
X74174000Y-118040000D01*
X76874000Y-118040000D01*
X79524000Y-117190000D01*
X79524000Y-119890000D01*
X76874000Y-119040000D01*
X74174000Y-119040000D01*
X71524000Y-119890000D01*
X71524000Y-117190000D01*
X71524000Y-117190000D01*
G37*
D10*
X60524000Y-118540000D03*
D11*
X60524000Y-119640000D03*
X60524000Y-117440000D03*
D12*
X60524000Y-118540000D03*
D13*
G36*
X64524000Y-119890000D02*
G01*
X61874000Y-119040000D01*
X59174000Y-119040000D01*
X56524000Y-119890000D01*
X56524000Y-117190000D01*
X59174000Y-118040000D01*
X61874000Y-118040000D01*
X64524000Y-117190000D01*
X64524000Y-119890000D01*
X64524000Y-119890000D01*
G37*
D10*
X45524000Y-118540000D03*
D11*
X45524000Y-117440000D03*
X45524000Y-119640000D03*
D12*
X45524000Y-118540000D03*
D13*
G36*
X41524000Y-117190000D02*
G01*
X44174000Y-118040000D01*
X46874000Y-118040000D01*
X49524000Y-117190000D01*
X49524000Y-119890000D01*
X46874000Y-119040000D01*
X44174000Y-119040000D01*
X41524000Y-119890000D01*
X41524000Y-117190000D01*
X41524000Y-117190000D01*
G37*
D10*
X135524000Y-103540000D03*
D11*
X135524000Y-102440000D03*
X135524000Y-104640000D03*
D12*
X135524000Y-103540000D03*
D13*
G36*
X131524000Y-102190000D02*
G01*
X134174000Y-103040000D01*
X136874000Y-103040000D01*
X139524000Y-102190000D01*
X139524000Y-104890000D01*
X136874000Y-104040000D01*
X134174000Y-104040000D01*
X131524000Y-104890000D01*
X131524000Y-102190000D01*
X131524000Y-102190000D01*
G37*
D10*
X120524000Y-103540000D03*
D11*
X120524000Y-104640000D03*
X120524000Y-102440000D03*
D12*
X120524000Y-103540000D03*
D13*
G36*
X124524000Y-104890000D02*
G01*
X121874000Y-104040000D01*
X119174000Y-104040000D01*
X116524000Y-104890000D01*
X116524000Y-102190000D01*
X119174000Y-103040000D01*
X121874000Y-103040000D01*
X124524000Y-102190000D01*
X124524000Y-104890000D01*
X124524000Y-104890000D01*
G37*
D10*
X105524000Y-103540000D03*
D11*
X105524000Y-102440000D03*
X105524000Y-104640000D03*
D12*
X105524000Y-103540000D03*
D13*
G36*
X101524000Y-102190000D02*
G01*
X104174000Y-103040000D01*
X106874000Y-103040000D01*
X109524000Y-102190000D01*
X109524000Y-104890000D01*
X106874000Y-104040000D01*
X104174000Y-104040000D01*
X101524000Y-104890000D01*
X101524000Y-102190000D01*
X101524000Y-102190000D01*
G37*
D10*
X90524000Y-103540000D03*
D11*
X90524000Y-104640000D03*
X90524000Y-102440000D03*
D12*
X90524000Y-103540000D03*
D13*
G36*
X94524000Y-104890000D02*
G01*
X91874000Y-104040000D01*
X89174000Y-104040000D01*
X86524000Y-104890000D01*
X86524000Y-102190000D01*
X89174000Y-103040000D01*
X91874000Y-103040000D01*
X94524000Y-102190000D01*
X94524000Y-104890000D01*
X94524000Y-104890000D01*
G37*
D10*
X75524000Y-103540000D03*
D11*
X75524000Y-102440000D03*
X75524000Y-104640000D03*
D12*
X75524000Y-103540000D03*
D13*
G36*
X71524000Y-102190000D02*
G01*
X74174000Y-103040000D01*
X76874000Y-103040000D01*
X79524000Y-102190000D01*
X79524000Y-104890000D01*
X76874000Y-104040000D01*
X74174000Y-104040000D01*
X71524000Y-104890000D01*
X71524000Y-102190000D01*
X71524000Y-102190000D01*
G37*
D10*
X60524000Y-103540000D03*
D11*
X60524000Y-104640000D03*
X60524000Y-102440000D03*
D12*
X60524000Y-103540000D03*
D13*
G36*
X64524000Y-104890000D02*
G01*
X61874000Y-104040000D01*
X59174000Y-104040000D01*
X56524000Y-104890000D01*
X56524000Y-102190000D01*
X59174000Y-103040000D01*
X61874000Y-103040000D01*
X64524000Y-102190000D01*
X64524000Y-104890000D01*
X64524000Y-104890000D01*
G37*
D10*
X45524000Y-103540000D03*
D11*
X45524000Y-102440000D03*
X45524000Y-104640000D03*
D12*
X45524000Y-103540000D03*
D13*
G36*
X41524000Y-102190000D02*
G01*
X44174000Y-103040000D01*
X46874000Y-103040000D01*
X49524000Y-102190000D01*
X49524000Y-104890000D01*
X46874000Y-104040000D01*
X44174000Y-104040000D01*
X41524000Y-104890000D01*
X41524000Y-102190000D01*
X41524000Y-102190000D01*
G37*
D10*
X135524000Y-88540000D03*
D11*
X135524000Y-87440000D03*
X135524000Y-89640000D03*
D12*
X135524000Y-88540000D03*
D13*
G36*
X131524000Y-87190000D02*
G01*
X134174000Y-88040000D01*
X136874000Y-88040000D01*
X139524000Y-87190000D01*
X139524000Y-89890000D01*
X136874000Y-89040000D01*
X134174000Y-89040000D01*
X131524000Y-89890000D01*
X131524000Y-87190000D01*
X131524000Y-87190000D01*
G37*
D10*
X120524000Y-88540000D03*
D11*
X120524000Y-89640000D03*
X120524000Y-87440000D03*
D12*
X120524000Y-88540000D03*
D13*
G36*
X124524000Y-89890000D02*
G01*
X121874000Y-89040000D01*
X119174000Y-89040000D01*
X116524000Y-89890000D01*
X116524000Y-87190000D01*
X119174000Y-88040000D01*
X121874000Y-88040000D01*
X124524000Y-87190000D01*
X124524000Y-89890000D01*
X124524000Y-89890000D01*
G37*
D10*
X105524000Y-88540000D03*
D11*
X105524000Y-87440000D03*
X105524000Y-89640000D03*
D12*
X105524000Y-88540000D03*
D13*
G36*
X101524000Y-87190000D02*
G01*
X104174000Y-88040000D01*
X106874000Y-88040000D01*
X109524000Y-87190000D01*
X109524000Y-89890000D01*
X106874000Y-89040000D01*
X104174000Y-89040000D01*
X101524000Y-89890000D01*
X101524000Y-87190000D01*
X101524000Y-87190000D01*
G37*
D10*
X90524000Y-88540000D03*
D11*
X90524000Y-89640000D03*
X90524000Y-87440000D03*
D12*
X90524000Y-88540000D03*
D13*
G36*
X94524000Y-89890000D02*
G01*
X91874000Y-89040000D01*
X89174000Y-89040000D01*
X86524000Y-89890000D01*
X86524000Y-87190000D01*
X89174000Y-88040000D01*
X91874000Y-88040000D01*
X94524000Y-87190000D01*
X94524000Y-89890000D01*
X94524000Y-89890000D01*
G37*
D10*
X75524000Y-88540000D03*
D11*
X75524000Y-87440000D03*
X75524000Y-89640000D03*
D12*
X75524000Y-88540000D03*
D13*
G36*
X71524000Y-87190000D02*
G01*
X74174000Y-88040000D01*
X76874000Y-88040000D01*
X79524000Y-87190000D01*
X79524000Y-89890000D01*
X76874000Y-89040000D01*
X74174000Y-89040000D01*
X71524000Y-89890000D01*
X71524000Y-87190000D01*
X71524000Y-87190000D01*
G37*
D10*
X60524000Y-88540000D03*
D11*
X60524000Y-89640000D03*
X60524000Y-87440000D03*
D12*
X60524000Y-88540000D03*
D13*
G36*
X64524000Y-89890000D02*
G01*
X61874000Y-89040000D01*
X59174000Y-89040000D01*
X56524000Y-89890000D01*
X56524000Y-87190000D01*
X59174000Y-88040000D01*
X61874000Y-88040000D01*
X64524000Y-87190000D01*
X64524000Y-89890000D01*
X64524000Y-89890000D01*
G37*
D10*
X45524000Y-88540000D03*
D11*
X45524000Y-87440000D03*
X45524000Y-89640000D03*
D12*
X45524000Y-88540000D03*
D13*
G36*
X41524000Y-87190000D02*
G01*
X44174000Y-88040000D01*
X46874000Y-88040000D01*
X49524000Y-87190000D01*
X49524000Y-89890000D01*
X46874000Y-89040000D01*
X44174000Y-89040000D01*
X41524000Y-89890000D01*
X41524000Y-87190000D01*
X41524000Y-87190000D01*
G37*
D10*
X135524000Y-73540000D03*
D11*
X135524000Y-72440000D03*
X135524000Y-74640000D03*
D12*
X135524000Y-73540000D03*
D13*
G36*
X131524000Y-72190000D02*
G01*
X134174000Y-73040000D01*
X136874000Y-73040000D01*
X139524000Y-72190000D01*
X139524000Y-74890000D01*
X136874000Y-74040000D01*
X134174000Y-74040000D01*
X131524000Y-74890000D01*
X131524000Y-72190000D01*
X131524000Y-72190000D01*
G37*
D10*
X120524000Y-73540000D03*
D11*
X120524000Y-74640000D03*
X120524000Y-72440000D03*
D12*
X120524000Y-73540000D03*
D13*
G36*
X124524000Y-74890000D02*
G01*
X121874000Y-74040000D01*
X119174000Y-74040000D01*
X116524000Y-74890000D01*
X116524000Y-72190000D01*
X119174000Y-73040000D01*
X121874000Y-73040000D01*
X124524000Y-72190000D01*
X124524000Y-74890000D01*
X124524000Y-74890000D01*
G37*
D10*
X105524000Y-73540000D03*
D11*
X105524000Y-72440000D03*
X105524000Y-74640000D03*
D12*
X105524000Y-73540000D03*
D13*
G36*
X101524000Y-72190000D02*
G01*
X104174000Y-73040000D01*
X106874000Y-73040000D01*
X109524000Y-72190000D01*
X109524000Y-74890000D01*
X106874000Y-74040000D01*
X104174000Y-74040000D01*
X101524000Y-74890000D01*
X101524000Y-72190000D01*
X101524000Y-72190000D01*
G37*
D10*
X90524000Y-73540000D03*
D11*
X90524000Y-74640000D03*
X90524000Y-72440000D03*
D12*
X90524000Y-73540000D03*
D13*
G36*
X94524000Y-74890000D02*
G01*
X91874000Y-74040000D01*
X89174000Y-74040000D01*
X86524000Y-74890000D01*
X86524000Y-72190000D01*
X89174000Y-73040000D01*
X91874000Y-73040000D01*
X94524000Y-72190000D01*
X94524000Y-74890000D01*
X94524000Y-74890000D01*
G37*
D10*
X75524000Y-73540000D03*
D11*
X75524000Y-72440000D03*
X75524000Y-74640000D03*
D12*
X75524000Y-73540000D03*
D13*
G36*
X71524000Y-72190000D02*
G01*
X74174000Y-73040000D01*
X76874000Y-73040000D01*
X79524000Y-72190000D01*
X79524000Y-74890000D01*
X76874000Y-74040000D01*
X74174000Y-74040000D01*
X71524000Y-74890000D01*
X71524000Y-72190000D01*
X71524000Y-72190000D01*
G37*
D10*
X60524000Y-73540000D03*
D11*
X60524000Y-74640000D03*
X60524000Y-72440000D03*
D12*
X60524000Y-73540000D03*
D13*
G36*
X64524000Y-74890000D02*
G01*
X61874000Y-74040000D01*
X59174000Y-74040000D01*
X56524000Y-74890000D01*
X56524000Y-72190000D01*
X59174000Y-73040000D01*
X61874000Y-73040000D01*
X64524000Y-72190000D01*
X64524000Y-74890000D01*
X64524000Y-74890000D01*
G37*
D10*
X45524000Y-73540000D03*
D11*
X45524000Y-72440000D03*
X45524000Y-74640000D03*
D12*
X45524000Y-73540000D03*
D13*
G36*
X41524000Y-72190000D02*
G01*
X44174000Y-73040000D01*
X46874000Y-73040000D01*
X49524000Y-72190000D01*
X49524000Y-74890000D01*
X46874000Y-74040000D01*
X44174000Y-74040000D01*
X41524000Y-74890000D01*
X41524000Y-72190000D01*
X41524000Y-72190000D01*
G37*
D10*
X135524000Y-58540000D03*
D11*
X135524000Y-57440000D03*
X135524000Y-59640000D03*
D12*
X135524000Y-58540000D03*
D13*
G36*
X131524000Y-57190000D02*
G01*
X134174000Y-58040000D01*
X136874000Y-58040000D01*
X139524000Y-57190000D01*
X139524000Y-59890000D01*
X136874000Y-59040000D01*
X134174000Y-59040000D01*
X131524000Y-59890000D01*
X131524000Y-57190000D01*
X131524000Y-57190000D01*
G37*
D10*
X120524000Y-58540000D03*
D11*
X120524000Y-59640000D03*
X120524000Y-57440000D03*
D12*
X120524000Y-58540000D03*
D13*
G36*
X124524000Y-59890000D02*
G01*
X121874000Y-59040000D01*
X119174000Y-59040000D01*
X116524000Y-59890000D01*
X116524000Y-57190000D01*
X119174000Y-58040000D01*
X121874000Y-58040000D01*
X124524000Y-57190000D01*
X124524000Y-59890000D01*
X124524000Y-59890000D01*
G37*
D10*
X105524000Y-58540000D03*
D11*
X105524000Y-57440000D03*
X105524000Y-59640000D03*
D12*
X105524000Y-58540000D03*
D13*
G36*
X101524000Y-57190000D02*
G01*
X104174000Y-58040000D01*
X106874000Y-58040000D01*
X109524000Y-57190000D01*
X109524000Y-59890000D01*
X106874000Y-59040000D01*
X104174000Y-59040000D01*
X101524000Y-59890000D01*
X101524000Y-57190000D01*
X101524000Y-57190000D01*
G37*
D10*
X90524000Y-58540000D03*
D11*
X90524000Y-59640000D03*
X90524000Y-57440000D03*
D12*
X90524000Y-58540000D03*
D13*
G36*
X94524000Y-59890000D02*
G01*
X91874000Y-59040000D01*
X89174000Y-59040000D01*
X86524000Y-59890000D01*
X86524000Y-57190000D01*
X89174000Y-58040000D01*
X91874000Y-58040000D01*
X94524000Y-57190000D01*
X94524000Y-59890000D01*
X94524000Y-59890000D01*
G37*
D10*
X75524000Y-58540000D03*
D11*
X75524000Y-57440000D03*
X75524000Y-59640000D03*
D12*
X75524000Y-58540000D03*
D13*
G36*
X71524000Y-57190000D02*
G01*
X74174000Y-58040000D01*
X76874000Y-58040000D01*
X79524000Y-57190000D01*
X79524000Y-59890000D01*
X76874000Y-59040000D01*
X74174000Y-59040000D01*
X71524000Y-59890000D01*
X71524000Y-57190000D01*
X71524000Y-57190000D01*
G37*
D10*
X60524000Y-58540000D03*
D11*
X60524000Y-59640000D03*
X60524000Y-57440000D03*
D12*
X60524000Y-58540000D03*
D13*
G36*
X64524000Y-59890000D02*
G01*
X61874000Y-59040000D01*
X59174000Y-59040000D01*
X56524000Y-59890000D01*
X56524000Y-57190000D01*
X59174000Y-58040000D01*
X61874000Y-58040000D01*
X64524000Y-57190000D01*
X64524000Y-59890000D01*
X64524000Y-59890000D01*
G37*
D10*
X45516800Y-58534300D03*
D11*
X45516800Y-57434300D03*
X45516800Y-59634300D03*
D12*
X45516800Y-58534300D03*
D13*
G36*
X41516800Y-57184300D02*
G01*
X44166800Y-58034300D01*
X46866800Y-58034300D01*
X49516800Y-57184300D01*
X49516800Y-59884300D01*
X46866800Y-59034300D01*
X44166800Y-59034300D01*
X41516800Y-59884300D01*
X41516800Y-57184300D01*
X41516800Y-57184300D01*
G37*
D10*
X135524000Y-43540000D03*
D11*
X135524000Y-42440000D03*
X135524000Y-44640000D03*
D12*
X135524000Y-43540000D03*
D13*
G36*
X131524000Y-42190000D02*
G01*
X134174000Y-43040000D01*
X136874000Y-43040000D01*
X139524000Y-42190000D01*
X139524000Y-44890000D01*
X136874000Y-44040000D01*
X134174000Y-44040000D01*
X131524000Y-44890000D01*
X131524000Y-42190000D01*
X131524000Y-42190000D01*
G37*
D10*
X120524000Y-43540000D03*
D11*
X120524000Y-44640000D03*
X120524000Y-42440000D03*
D12*
X120524000Y-43540000D03*
D13*
G36*
X124524000Y-44890000D02*
G01*
X121874000Y-44040000D01*
X119174000Y-44040000D01*
X116524000Y-44890000D01*
X116524000Y-42190000D01*
X119174000Y-43040000D01*
X121874000Y-43040000D01*
X124524000Y-42190000D01*
X124524000Y-44890000D01*
X124524000Y-44890000D01*
G37*
D10*
X105524000Y-43540000D03*
D11*
X105524000Y-42440000D03*
X105524000Y-44640000D03*
D12*
X105524000Y-43540000D03*
D13*
G36*
X101524000Y-42190000D02*
G01*
X104174000Y-43040000D01*
X106874000Y-43040000D01*
X109524000Y-42190000D01*
X109524000Y-44890000D01*
X106874000Y-44040000D01*
X104174000Y-44040000D01*
X101524000Y-44890000D01*
X101524000Y-42190000D01*
X101524000Y-42190000D01*
G37*
D10*
X90524000Y-43540000D03*
D11*
X90524000Y-44640000D03*
X90524000Y-42440000D03*
D12*
X90524000Y-43540000D03*
D13*
G36*
X94524000Y-44890000D02*
G01*
X91874000Y-44040000D01*
X89174000Y-44040000D01*
X86524000Y-44890000D01*
X86524000Y-42190000D01*
X89174000Y-43040000D01*
X91874000Y-43040000D01*
X94524000Y-42190000D01*
X94524000Y-44890000D01*
X94524000Y-44890000D01*
G37*
D10*
X75524000Y-43540000D03*
D11*
X75524000Y-42440000D03*
X75524000Y-44640000D03*
D12*
X75524000Y-43540000D03*
D13*
G36*
X71524000Y-42190000D02*
G01*
X74174000Y-43040000D01*
X76874000Y-43040000D01*
X79524000Y-42190000D01*
X79524000Y-44890000D01*
X76874000Y-44040000D01*
X74174000Y-44040000D01*
X71524000Y-44890000D01*
X71524000Y-42190000D01*
X71524000Y-42190000D01*
G37*
D10*
X60524000Y-43540000D03*
D11*
X60524000Y-44640000D03*
X60524000Y-42440000D03*
D12*
X60524000Y-43540000D03*
D13*
G36*
X64524000Y-44890000D02*
G01*
X61874000Y-44040000D01*
X59174000Y-44040000D01*
X56524000Y-44890000D01*
X56524000Y-42190000D01*
X59174000Y-43040000D01*
X61874000Y-43040000D01*
X64524000Y-42190000D01*
X64524000Y-44890000D01*
X64524000Y-44890000D01*
G37*
D10*
X45524000Y-43540000D03*
D11*
X45524000Y-42440000D03*
X45524000Y-44640000D03*
D12*
X45524000Y-43540000D03*
D13*
G36*
X41524000Y-42190000D02*
G01*
X44174000Y-43040000D01*
X46874000Y-43040000D01*
X49524000Y-42190000D01*
X49524000Y-44890000D01*
X46874000Y-44040000D01*
X44174000Y-44040000D01*
X41524000Y-44890000D01*
X41524000Y-42190000D01*
X41524000Y-42190000D01*
G37*
D14*
X100524000Y-26540000D03*
X80524000Y-26540000D03*
D15*
X135478100Y-45478100D02*
X135478100Y-46946400D01*
X135478100Y-44576500D02*
X135478100Y-45478100D01*
D16*
X100524000Y-26540000D02*
X133540000Y-26540000D01*
X144000000Y-134000000D02*
X139000000Y-139000000D01*
X139000000Y-139000000D02*
X136000000Y-139000000D01*
X135541600Y-138541600D02*
X135541600Y-135458400D01*
X136000000Y-139000000D02*
X135541600Y-138541600D01*
D15*
X135541600Y-134721100D02*
X135541600Y-135458400D01*
X135541600Y-135458400D02*
X135541600Y-137091000D01*
D16*
X144000000Y-37000000D02*
X143500000Y-36500000D01*
X144000000Y-47000000D02*
X144000000Y-37000000D01*
X133540000Y-26540000D02*
X143500000Y-36500000D01*
X135478100Y-60521900D02*
X135478100Y-62478100D01*
D15*
X135478100Y-60521900D02*
X135478100Y-61945100D01*
X135478100Y-59575200D02*
X135478100Y-60521900D01*
D16*
X138000000Y-65000000D02*
X144000000Y-65000000D01*
X135478100Y-62478100D02*
X138000000Y-65000000D01*
X135478100Y-75521900D02*
X135478100Y-78478100D01*
D15*
X135478100Y-75521900D02*
X135478100Y-76981900D01*
X135478100Y-74612000D02*
X135478100Y-75521900D01*
D16*
X137000000Y-80000000D02*
X144000000Y-80000000D01*
X135478100Y-78478100D02*
X137000000Y-80000000D01*
X144000000Y-65000000D02*
X144000000Y-80000000D01*
X135668600Y-90668600D02*
X135668600Y-92668600D01*
D15*
X135668600Y-90668600D02*
X135668600Y-92056800D01*
X135668600Y-89686900D02*
X135668600Y-90668600D01*
D16*
X138000000Y-95000000D02*
X144000000Y-95000000D01*
X135668600Y-92668600D02*
X138000000Y-95000000D01*
X144000000Y-80000000D02*
X144000000Y-95000000D01*
X135490800Y-105509200D02*
X135490800Y-107490800D01*
D15*
X135490800Y-105509200D02*
X135490800Y-107004700D01*
X135490800Y-104634800D02*
X135490800Y-105509200D01*
D16*
X138000000Y-110000000D02*
X144000000Y-110000000D01*
X135490800Y-107490800D02*
X138000000Y-110000000D01*
X144000000Y-95000000D02*
X144000000Y-110000000D01*
X135478100Y-45478100D02*
X135478100Y-48478100D01*
X137000000Y-50000000D02*
X144000000Y-50000000D01*
X135478100Y-48478100D02*
X137000000Y-50000000D01*
X144000000Y-47000000D02*
X144000000Y-50000000D01*
X144000000Y-50000000D02*
X144000000Y-65000000D01*
X135541600Y-120541600D02*
X135541600Y-121541600D01*
D15*
X135541600Y-120541600D02*
X135541600Y-122016100D01*
X135541600Y-119646200D02*
X135541600Y-120541600D01*
D16*
X138000000Y-124000000D02*
X144000000Y-124000000D01*
X135541600Y-121541600D02*
X138000000Y-124000000D01*
X144000000Y-110000000D02*
X144000000Y-124000000D01*
X144000000Y-124000000D02*
X144000000Y-134000000D01*
X45524000Y-45524000D02*
X45524000Y-47524000D01*
D15*
X45524000Y-45524000D02*
X45524000Y-47009900D01*
X45524000Y-44640000D02*
X45524000Y-45524000D01*
D16*
X45524000Y-47524000D02*
X47000000Y-49000000D01*
X47000000Y-49000000D02*
X60000000Y-49000000D01*
X60524000Y-48476000D02*
X60524000Y-45476000D01*
X60000000Y-49000000D02*
X60524000Y-48476000D01*
D15*
X60524000Y-44640000D02*
X60524000Y-45476000D01*
X60524000Y-45476000D02*
X60524000Y-46795300D01*
X60524000Y-41476000D02*
X60524000Y-40496100D01*
X60524000Y-42440000D02*
X60524000Y-41476000D01*
D16*
X73144400Y-38000000D02*
X75572200Y-40427800D01*
X62000000Y-38000000D02*
X73144400Y-38000000D01*
X60524000Y-39476000D02*
X62000000Y-38000000D01*
X60524000Y-41476000D02*
X60524000Y-39476000D01*
D15*
X75572200Y-40427800D02*
X75572200Y-39885200D01*
D16*
X75572200Y-40427800D02*
X75572200Y-41427800D01*
D15*
X75572200Y-42389200D02*
X75572200Y-41427800D01*
X75572200Y-45427800D02*
X75572200Y-46959100D01*
X75572200Y-44589200D02*
X75572200Y-45427800D01*
X90507400Y-44690800D02*
X90507400Y-45492600D01*
X90507400Y-45492600D02*
X90507400Y-47060700D01*
D16*
X75572200Y-45427800D02*
X75572200Y-47572200D01*
X75572200Y-47572200D02*
X76000000Y-48000000D01*
X76000000Y-48000000D02*
X90000000Y-48000000D01*
X90507400Y-47492600D02*
X90507400Y-45492600D01*
X90000000Y-48000000D02*
X90507400Y-47492600D01*
D15*
X90507400Y-41492600D02*
X90507400Y-39986800D01*
X90507400Y-42490800D02*
X90507400Y-41492600D01*
D16*
X105607700Y-39607700D02*
X105607700Y-41607700D01*
D15*
X105607700Y-42440000D02*
X105607700Y-41607700D01*
D16*
X90507400Y-41492600D02*
X90507400Y-40492600D01*
D15*
X105607700Y-41607700D02*
X105607700Y-39936000D01*
D16*
X90507400Y-40492600D02*
X92000000Y-39000000D01*
X92000000Y-39000000D02*
X105000000Y-39000000D01*
X105000000Y-39000000D02*
X105607700Y-39607700D01*
X105607700Y-45392300D02*
X105607700Y-47607700D01*
D15*
X105607700Y-45392300D02*
X105607700Y-47009900D01*
X105607700Y-44640000D02*
X105607700Y-45392300D01*
D16*
X105607700Y-47607700D02*
X107000000Y-49000000D01*
X107000000Y-49000000D02*
X119000000Y-49000000D01*
X120555600Y-47444400D02*
X120555600Y-45444400D01*
X119000000Y-49000000D02*
X120555600Y-47444400D01*
D15*
X120555600Y-44627300D02*
X120555600Y-45444400D01*
X120555600Y-45444400D02*
X120555600Y-46997200D01*
D16*
X120555600Y-41555600D02*
X120555600Y-39444400D01*
D15*
X120555600Y-41555600D02*
X120555600Y-39923300D01*
X120555600Y-42427300D02*
X120555600Y-41555600D01*
D16*
X120555600Y-39444400D02*
X121000000Y-39000000D01*
X121000000Y-39000000D02*
X135000000Y-39000000D01*
X135478100Y-39478100D02*
X135478100Y-41521900D01*
X135000000Y-39000000D02*
X135478100Y-39478100D01*
D15*
X135478100Y-42376500D02*
X135478100Y-41521900D01*
X135478100Y-41521900D02*
X135478100Y-39872500D01*
D16*
X45524000Y-60476000D02*
X45524000Y-62524000D01*
D15*
X45524000Y-60476000D02*
X45524000Y-61932400D01*
X45524000Y-59562500D02*
X45524000Y-60476000D01*
D16*
X45524000Y-62524000D02*
X47000000Y-64000000D01*
X47000000Y-64000000D02*
X60000000Y-64000000D01*
X60522700Y-63477300D02*
X60522700Y-60477300D01*
X60000000Y-64000000D02*
X60522700Y-63477300D01*
D15*
X60522700Y-59613300D02*
X60522700Y-60477300D01*
X60522700Y-60477300D02*
X60522700Y-61983200D01*
D16*
X60522700Y-56522700D02*
X60522700Y-55477300D01*
D15*
X60522700Y-56522700D02*
X60522700Y-54909300D01*
X60522700Y-57413300D02*
X60522700Y-56522700D01*
D16*
X60522700Y-55477300D02*
X62000000Y-54000000D01*
X62000000Y-54000000D02*
X75000000Y-54000000D01*
X75496000Y-54496000D02*
X75496000Y-56504000D01*
X75000000Y-54000000D02*
X75496000Y-54496000D01*
D15*
X75496000Y-57349800D02*
X75496000Y-56504000D01*
X75496000Y-56504000D02*
X75496000Y-54845800D01*
D16*
X75496000Y-60504000D02*
X75496000Y-63496000D01*
D15*
X75496000Y-60504000D02*
X75496000Y-61919700D01*
X75496000Y-59549800D02*
X75496000Y-60504000D01*
D16*
X75496000Y-63496000D02*
X76000000Y-64000000D01*
X76000000Y-64000000D02*
X89000000Y-64000000D01*
X90621700Y-62378300D02*
X90621700Y-60621700D01*
X89000000Y-64000000D02*
X90621700Y-62378300D01*
D15*
X90621700Y-59613300D02*
X90621700Y-60621700D01*
X90621700Y-60621700D02*
X90621700Y-61983200D01*
D16*
X90621700Y-56378300D02*
X90621700Y-55378300D01*
D15*
X90621700Y-56378300D02*
X90621700Y-54909300D01*
X90621700Y-57413300D02*
X90621700Y-56378300D01*
D16*
X90621700Y-55378300D02*
X92000000Y-54000000D01*
X92000000Y-54000000D02*
X105000000Y-54000000D01*
X105506100Y-54506100D02*
X105506100Y-56506100D01*
X105000000Y-54000000D02*
X105506100Y-54506100D01*
D15*
X105506100Y-57375200D02*
X105506100Y-56506100D01*
X105506100Y-56506100D02*
X105506100Y-54871200D01*
D16*
X105506100Y-60493900D02*
X105506100Y-61506100D01*
D15*
X105506100Y-60493900D02*
X105506100Y-61945100D01*
X105506100Y-59575200D02*
X105506100Y-60493900D01*
D16*
X105506100Y-61506100D02*
X108000000Y-64000000D01*
X108000000Y-64000000D02*
X119000000Y-64000000D01*
X120504800Y-62495200D02*
X120504800Y-60495200D01*
X119000000Y-64000000D02*
X120504800Y-62495200D01*
D15*
X120504800Y-59613300D02*
X120504800Y-60495200D01*
X120504800Y-60495200D02*
X120504800Y-61983200D01*
D16*
X120504800Y-56504800D02*
X120504800Y-55495200D01*
D15*
X120504800Y-56504800D02*
X120504800Y-54909300D01*
X120504800Y-57413300D02*
X120504800Y-56504800D01*
D16*
X120504800Y-55495200D02*
X122000000Y-54000000D01*
X122000000Y-54000000D02*
X135000000Y-54000000D01*
X135478100Y-54478100D02*
X135478100Y-56521900D01*
X135000000Y-54000000D02*
X135478100Y-54478100D01*
D15*
X135478100Y-57375200D02*
X135478100Y-56521900D01*
X135478100Y-56521900D02*
X135478100Y-54871200D01*
D16*
X45587500Y-75587500D02*
X45587500Y-77587500D01*
D15*
X45587500Y-75587500D02*
X45587500Y-76867600D01*
X45587500Y-74497700D02*
X45587500Y-75587500D01*
D16*
X45587500Y-77587500D02*
X46000000Y-78000000D01*
X46000000Y-78000000D02*
X60000000Y-78000000D01*
X60675100Y-77324900D02*
X60675100Y-75324900D01*
X60000000Y-78000000D02*
X60675100Y-77324900D01*
D15*
X60675100Y-74561200D02*
X60675100Y-75324900D01*
X60675100Y-75324900D02*
X60675100Y-76931100D01*
D16*
X60675100Y-71324900D02*
X60675100Y-70324900D01*
D15*
X60675100Y-71324900D02*
X60675100Y-69857200D01*
X60675100Y-72361200D02*
X60675100Y-71324900D01*
D16*
X60675100Y-70324900D02*
X62000000Y-69000000D01*
X62000000Y-69000000D02*
X75000000Y-69000000D01*
X75508700Y-69508700D02*
X75508700Y-71508700D01*
X75000000Y-69000000D02*
X75508700Y-69508700D01*
D15*
X75508700Y-72475500D02*
X75508700Y-71508700D01*
X75508700Y-71508700D02*
X75508700Y-69971500D01*
D16*
X75508700Y-75508700D02*
X75508700Y-77508700D01*
D15*
X75508700Y-75508700D02*
X75508700Y-77045400D01*
X75508700Y-74675500D02*
X75508700Y-75508700D01*
D16*
X75508700Y-77508700D02*
X77000000Y-79000000D01*
X77000000Y-79000000D02*
X90000000Y-79000000D01*
X90545500Y-78454500D02*
X90545500Y-75545500D01*
X90000000Y-79000000D02*
X90545500Y-78454500D01*
D15*
X90545500Y-74675500D02*
X90545500Y-75545500D01*
X90545500Y-75545500D02*
X90545500Y-77045400D01*
D16*
X90545500Y-71545500D02*
X90545500Y-70454500D01*
D15*
X90545500Y-71545500D02*
X90545500Y-69971500D01*
X90545500Y-72475500D02*
X90545500Y-71545500D01*
D16*
X90545500Y-70454500D02*
X92000000Y-69000000D01*
X92000000Y-69000000D02*
X104000000Y-69000000D01*
X105442600Y-70442600D02*
X105442600Y-71442600D01*
X104000000Y-69000000D02*
X105442600Y-70442600D01*
D15*
X105442600Y-72475500D02*
X105442600Y-71442600D01*
X105442600Y-71442600D02*
X105442600Y-69971500D01*
D16*
X105442600Y-75557400D02*
X105442600Y-77442600D01*
D15*
X105442600Y-75557400D02*
X105442600Y-77045400D01*
X105442600Y-74675500D02*
X105442600Y-75557400D01*
D16*
X105442600Y-77442600D02*
X106000000Y-78000000D01*
X106000000Y-78000000D02*
X120000000Y-78000000D01*
X120581000Y-77419000D02*
X120581000Y-75419000D01*
X120000000Y-78000000D02*
X120581000Y-77419000D01*
D15*
X120581000Y-74523100D02*
X120581000Y-75419000D01*
X120581000Y-75419000D02*
X120581000Y-76893000D01*
D16*
X120581000Y-71419000D02*
X120581000Y-70419000D01*
D15*
X120581000Y-71419000D02*
X120581000Y-69819100D01*
X120581000Y-72323100D02*
X120581000Y-71419000D01*
D16*
X120581000Y-70419000D02*
X122000000Y-69000000D01*
X122000000Y-69000000D02*
X135000000Y-69000000D01*
X135478100Y-69478100D02*
X135478100Y-71521900D01*
X135000000Y-69000000D02*
X135478100Y-69478100D01*
D15*
X135478100Y-72412000D02*
X135478100Y-71521900D01*
X135478100Y-71521900D02*
X135478100Y-69908000D01*
D16*
X45739900Y-90739900D02*
X45739900Y-92739900D01*
D15*
X45739900Y-90739900D02*
X45739900Y-91993300D01*
X45739900Y-89623400D02*
X45739900Y-90739900D01*
D16*
X45739900Y-92739900D02*
X46000000Y-93000000D01*
X46000000Y-93000000D02*
X59000000Y-93000000D01*
X60624300Y-91375700D02*
X60624300Y-90375700D01*
X59000000Y-93000000D02*
X60624300Y-91375700D01*
D15*
X60624300Y-89686900D02*
X60624300Y-90375700D01*
X60624300Y-90375700D02*
X60624300Y-92056800D01*
D16*
X60624300Y-86624300D02*
X60624300Y-84375700D01*
D15*
X60624300Y-86624300D02*
X60624300Y-84982900D01*
X60624300Y-87486900D02*
X60624300Y-86624300D01*
D16*
X60624300Y-84375700D02*
X61000000Y-84000000D01*
X61000000Y-84000000D02*
X75000000Y-84000000D01*
X75597600Y-84597600D02*
X75597600Y-86597600D01*
X75000000Y-84000000D02*
X75597600Y-84597600D01*
D15*
X75597600Y-87347200D02*
X75597600Y-86597600D01*
X75597600Y-86597600D02*
X75597600Y-84843200D01*
D16*
X75597600Y-90597600D02*
X75597600Y-92597600D01*
D15*
X75597600Y-90597600D02*
X75597600Y-91917100D01*
X75597600Y-89547200D02*
X75597600Y-90597600D01*
D16*
X75597600Y-92597600D02*
X76000000Y-93000000D01*
X76000000Y-93000000D02*
X90000000Y-93000000D01*
X90634400Y-92365600D02*
X90634400Y-90634400D01*
X90000000Y-93000000D02*
X90634400Y-92365600D01*
D15*
X90634400Y-89725000D02*
X90634400Y-90634400D01*
X90634400Y-90634400D02*
X90634400Y-92094900D01*
D16*
X90634400Y-86634400D02*
X90634400Y-85365600D01*
D15*
X90634400Y-86634400D02*
X90634400Y-85021000D01*
X90634400Y-87525000D02*
X90634400Y-86634400D01*
D16*
X90634400Y-85365600D02*
X92000000Y-84000000D01*
X92000000Y-84000000D02*
X105000000Y-84000000D01*
X105480700Y-84480700D02*
X105480700Y-86480700D01*
X105000000Y-84000000D02*
X105480700Y-84480700D01*
D15*
X105480700Y-87525000D02*
X105480700Y-86480700D01*
X105480700Y-86480700D02*
X105480700Y-85021000D01*
D16*
X105480700Y-90480700D02*
X105480700Y-93480700D01*
D15*
X105480700Y-90480700D02*
X105480700Y-92094900D01*
X105480700Y-89725000D02*
X105480700Y-90480700D01*
D16*
X105480700Y-93480700D02*
X106000000Y-94000000D01*
X106000000Y-94000000D02*
X120000000Y-94000000D01*
X120708000Y-93292000D02*
X120708000Y-90708000D01*
X120000000Y-94000000D02*
X120708000Y-93292000D01*
D15*
X120708000Y-89547200D02*
X120708000Y-90708000D01*
X120708000Y-90708000D02*
X120708000Y-91917100D01*
D16*
X120708000Y-86292000D02*
X120708000Y-85292000D01*
D15*
X120708000Y-86292000D02*
X120708000Y-84843200D01*
X120708000Y-87347200D02*
X120708000Y-86292000D01*
D16*
X120708000Y-85292000D02*
X122000000Y-84000000D01*
X122000000Y-84000000D02*
X135000000Y-84000000D01*
X135668600Y-84668600D02*
X135668600Y-86668600D01*
X135000000Y-84000000D02*
X135668600Y-84668600D01*
D15*
X135668600Y-87486900D02*
X135668600Y-86668600D01*
X135668600Y-86668600D02*
X135668600Y-84982900D01*
D16*
X45485900Y-105514100D02*
X45485900Y-106485900D01*
D15*
X45485900Y-105514100D02*
X45485900Y-107080900D01*
X45485900Y-104711000D02*
X45485900Y-105514100D01*
D16*
X45485900Y-106485900D02*
X47000000Y-108000000D01*
X47000000Y-108000000D02*
X60000000Y-108000000D01*
X60408400Y-107591600D02*
X60408400Y-105408400D01*
X60000000Y-108000000D02*
X60408400Y-107591600D01*
D15*
X60408400Y-104647500D02*
X60408400Y-105408400D01*
X60408400Y-105408400D02*
X60408400Y-107017400D01*
D16*
X60408400Y-101408400D02*
X60408400Y-98591600D01*
D15*
X60408400Y-101408400D02*
X60408400Y-99943500D01*
X60408400Y-102447500D02*
X60408400Y-101408400D01*
D16*
X60408400Y-98591600D02*
X61000000Y-98000000D01*
X61000000Y-98000000D02*
X74000000Y-98000000D01*
X75457900Y-99457900D02*
X75457900Y-101457900D01*
X74000000Y-98000000D02*
X75457900Y-99457900D01*
D15*
X75457900Y-102460200D02*
X75457900Y-101457900D01*
X75457900Y-101457900D02*
X75457900Y-99956200D01*
D16*
X75457900Y-105542100D02*
X75457900Y-107457900D01*
D15*
X75457900Y-105542100D02*
X75457900Y-107030100D01*
X75457900Y-104660200D02*
X75457900Y-105542100D01*
D16*
X75457900Y-107457900D02*
X77000000Y-109000000D01*
X77000000Y-109000000D02*
X89000000Y-109000000D01*
X90469300Y-107530700D02*
X90469300Y-105530700D01*
X89000000Y-109000000D02*
X90469300Y-107530700D01*
D15*
X90469300Y-104698300D02*
X90469300Y-105530700D01*
X90469300Y-105530700D02*
X90469300Y-107068200D01*
D16*
X90469300Y-101469300D02*
X90469300Y-100530700D01*
D15*
X90469300Y-101469300D02*
X90469300Y-99994300D01*
X90469300Y-102498300D02*
X90469300Y-101469300D01*
D16*
X90469300Y-100530700D02*
X93000000Y-98000000D01*
X93000000Y-98000000D02*
X105000000Y-98000000D01*
X105544200Y-98544200D02*
X105544200Y-101544200D01*
X105000000Y-98000000D02*
X105544200Y-98544200D01*
D15*
X105544200Y-102460200D02*
X105544200Y-101544200D01*
X105544200Y-101544200D02*
X105544200Y-99956200D01*
D16*
X105544200Y-105544200D02*
X105544200Y-107544200D01*
D15*
X105544200Y-105544200D02*
X105544200Y-107030100D01*
X105544200Y-104660200D02*
X105544200Y-105544200D01*
D16*
X105544200Y-107544200D02*
X106000000Y-108000000D01*
X106000000Y-108000000D02*
X119000000Y-108000000D01*
X120530200Y-106469800D02*
X120530200Y-105469800D01*
X119000000Y-108000000D02*
X120530200Y-106469800D01*
D15*
X120530200Y-104711000D02*
X120530200Y-105469800D01*
X120530200Y-105469800D02*
X120530200Y-107080900D01*
D16*
X120530200Y-101530200D02*
X120530200Y-99469800D01*
D15*
X120530200Y-101530200D02*
X120530200Y-100007000D01*
X120530200Y-102511000D02*
X120530200Y-101530200D01*
D16*
X120530200Y-99469800D02*
X121000000Y-99000000D01*
X121000000Y-99000000D02*
X135000000Y-99000000D01*
X135490800Y-99490800D02*
X135490800Y-101509200D01*
X135000000Y-99000000D02*
X135490800Y-99490800D01*
D15*
X135490800Y-102434800D02*
X135490800Y-101509200D01*
X135490800Y-101509200D02*
X135490800Y-99930800D01*
D16*
X45346200Y-120346200D02*
X45346200Y-121346200D01*
D15*
X45346200Y-120346200D02*
X45346200Y-122092300D01*
X45346200Y-119722400D02*
X45346200Y-120346200D01*
D16*
X45346200Y-121346200D02*
X47000000Y-123000000D01*
X47000000Y-123000000D02*
X60000000Y-123000000D01*
X60421100Y-122578900D02*
X60421100Y-120421100D01*
X60000000Y-123000000D02*
X60421100Y-122578900D01*
D15*
X60421100Y-119658900D02*
X60421100Y-120421100D01*
X60421100Y-120421100D02*
X60421100Y-122028800D01*
D16*
X60421100Y-116578900D02*
X60421100Y-115578900D01*
D15*
X60421100Y-116578900D02*
X60421100Y-114954900D01*
X60421100Y-117458900D02*
X60421100Y-116578900D01*
D16*
X60421100Y-115578900D02*
X62000000Y-114000000D01*
X62000000Y-114000000D02*
X74000000Y-114000000D01*
X75394400Y-115394400D02*
X75394400Y-116605600D01*
X74000000Y-114000000D02*
X75394400Y-115394400D01*
D15*
X75394400Y-117573200D02*
X75394400Y-116605600D01*
X75394400Y-116605600D02*
X75394400Y-115069200D01*
D16*
X75394400Y-120394400D02*
X75394400Y-122394400D01*
D15*
X75394400Y-120394400D02*
X75394400Y-122143100D01*
X75394400Y-119773200D02*
X75394400Y-120394400D01*
D16*
X75394400Y-122394400D02*
X77000000Y-124000000D01*
X77000000Y-124000000D02*
X90000000Y-124000000D01*
X90609000Y-123391000D02*
X90609000Y-120609000D01*
X90000000Y-124000000D02*
X90609000Y-123391000D01*
D15*
X90609000Y-119684300D02*
X90609000Y-120609000D01*
X90609000Y-120609000D02*
X90609000Y-122054200D01*
D16*
X90609000Y-116391000D02*
X90609000Y-115391000D01*
D15*
X90609000Y-116391000D02*
X90609000Y-114980300D01*
X90609000Y-117484300D02*
X90609000Y-116391000D01*
D16*
X90609000Y-115391000D02*
X92000000Y-114000000D01*
X92000000Y-114000000D02*
X105000000Y-114000000D01*
X105493400Y-114493400D02*
X105493400Y-116493400D01*
X105000000Y-114000000D02*
X105493400Y-114493400D01*
D15*
X105493400Y-117484300D02*
X105493400Y-116493400D01*
X105493400Y-116493400D02*
X105493400Y-114980300D01*
D16*
X105493400Y-120493400D02*
X105493400Y-122493400D01*
D15*
X105493400Y-120493400D02*
X105493400Y-122054200D01*
X105493400Y-119684300D02*
X105493400Y-120493400D01*
D16*
X105493400Y-122493400D02*
X107000000Y-124000000D01*
X107000000Y-124000000D02*
X119000000Y-124000000D01*
X120466700Y-122533300D02*
X120466700Y-120533300D01*
X119000000Y-124000000D02*
X120466700Y-122533300D01*
D15*
X120466700Y-119709700D02*
X120466700Y-120533300D01*
X120466700Y-120533300D02*
X120466700Y-122079600D01*
D16*
X120466700Y-116466700D02*
X120466700Y-114533300D01*
D15*
X120466700Y-116466700D02*
X120466700Y-115005700D01*
X120466700Y-117509700D02*
X120466700Y-116466700D01*
D16*
X120466700Y-114533300D02*
X121000000Y-114000000D01*
X121000000Y-114000000D02*
X134000000Y-114000000D01*
X135541600Y-115541600D02*
X135541600Y-116458400D01*
X134000000Y-114000000D02*
X135541600Y-115541600D01*
D15*
X135541600Y-117446200D02*
X135541600Y-116458400D01*
X135541600Y-116458400D02*
X135541600Y-114942200D01*
D16*
X45638300Y-135361700D02*
X45638300Y-137638300D01*
D15*
X45638300Y-135361700D02*
X45638300Y-137014800D01*
X45638300Y-134644900D02*
X45638300Y-135361700D01*
D16*
X45638300Y-137638300D02*
X47000000Y-139000000D01*
X47000000Y-139000000D02*
X59000000Y-139000000D01*
X60510000Y-137490000D02*
X60510000Y-135510000D01*
X59000000Y-139000000D02*
X60510000Y-137490000D01*
D15*
X60510000Y-134581400D02*
X60510000Y-135510000D01*
X60510000Y-135510000D02*
X60510000Y-136951300D01*
D16*
X60510000Y-131490000D02*
X60510000Y-130490000D01*
D15*
X60510000Y-131490000D02*
X60510000Y-129877400D01*
X60510000Y-132381400D02*
X60510000Y-131490000D01*
D16*
X60510000Y-130490000D02*
X62000000Y-129000000D01*
X62000000Y-129000000D02*
X74000000Y-129000000D01*
X75445200Y-130445200D02*
X75445200Y-131554800D01*
X74000000Y-129000000D02*
X75445200Y-130445200D01*
D15*
X75445200Y-132495700D02*
X75445200Y-131554800D01*
X75445200Y-131554800D02*
X75445200Y-129991700D01*
D16*
X75445200Y-135445200D02*
X75445200Y-137445200D01*
D15*
X75445200Y-135445200D02*
X75445200Y-137065600D01*
X75445200Y-134695700D02*
X75445200Y-135445200D01*
D16*
X75445200Y-137445200D02*
X77000000Y-139000000D01*
X77000000Y-139000000D02*
X89000000Y-139000000D01*
X90482000Y-137518000D02*
X90482000Y-135518000D01*
X89000000Y-139000000D02*
X90482000Y-137518000D01*
D15*
X90482000Y-134746500D02*
X90482000Y-135518000D01*
X90482000Y-135518000D02*
X90482000Y-137116400D01*
D16*
X90482000Y-131518000D02*
X90482000Y-130518000D01*
D15*
X90482000Y-131518000D02*
X90482000Y-130042500D01*
X90482000Y-132546500D02*
X90482000Y-131518000D01*
D16*
X90482000Y-130518000D02*
X92000000Y-129000000D01*
X92000000Y-129000000D02*
X105000000Y-129000000D01*
X105633100Y-129633100D02*
X105633100Y-131633100D01*
X105000000Y-129000000D02*
X105633100Y-129633100D01*
D15*
X105633100Y-132483000D02*
X105633100Y-131633100D01*
X105633100Y-131633100D02*
X105633100Y-129979000D01*
D16*
X105633100Y-135366900D02*
X105633100Y-136633100D01*
D15*
X105633100Y-135366900D02*
X105633100Y-137052900D01*
X105633100Y-134683000D02*
X105633100Y-135366900D01*
D16*
X105633100Y-136633100D02*
X107000000Y-138000000D01*
X107000000Y-138000000D02*
X120000000Y-138000000D01*
X120403200Y-137596800D02*
X120403200Y-135596800D01*
X120000000Y-138000000D02*
X120403200Y-137596800D01*
D15*
X120403200Y-134644900D02*
X120403200Y-135596800D01*
X120403200Y-135596800D02*
X120403200Y-137014800D01*
D16*
X135541600Y-131458400D02*
X135541600Y-129541600D01*
D15*
X135541600Y-131458400D02*
X135541600Y-130017100D01*
X135541600Y-132521100D02*
X135541600Y-131458400D01*
D16*
X135541600Y-129541600D02*
X135000000Y-129000000D01*
X135000000Y-129000000D02*
X121000000Y-129000000D01*
X120403200Y-129596800D02*
X120403200Y-131596800D01*
X121000000Y-129000000D02*
X120403200Y-129596800D01*
D15*
X120403200Y-132444900D02*
X120403200Y-131596800D01*
X120403200Y-131596800D02*
X120403200Y-129940900D01*
D16*
X80524000Y-26540000D02*
X59460000Y-26540000D01*
X59460000Y-26540000D02*
X52000000Y-34000000D01*
X40000000Y-34000000D02*
X36000000Y-38000000D01*
X36000000Y-127000000D02*
X44000000Y-127000000D01*
X45638300Y-128638300D02*
X45638300Y-131638300D01*
X44000000Y-127000000D02*
X45638300Y-128638300D01*
D15*
X45638300Y-132444900D02*
X45638300Y-131638300D01*
X45638300Y-131638300D02*
X45638300Y-129940900D01*
D16*
X36000000Y-113000000D02*
X44000000Y-113000000D01*
X36000000Y-113000000D02*
X36000000Y-127000000D01*
X45346200Y-114346200D02*
X45346200Y-116653800D01*
X44000000Y-113000000D02*
X45346200Y-114346200D01*
D15*
X45346200Y-117522400D02*
X45346200Y-116653800D01*
X45346200Y-116653800D02*
X45346200Y-115018400D01*
D16*
X36000000Y-98000000D02*
X44000000Y-98000000D01*
X36000000Y-98000000D02*
X36000000Y-113000000D01*
X45485900Y-99485900D02*
X45485900Y-101485900D01*
X44000000Y-98000000D02*
X45485900Y-99485900D01*
D15*
X45485900Y-102511000D02*
X45485900Y-101485900D01*
X45485900Y-101485900D02*
X45485900Y-100007000D01*
D16*
X36000000Y-82000000D02*
X44000000Y-82000000D01*
X36000000Y-82000000D02*
X36000000Y-98000000D01*
X45739900Y-83739900D02*
X45739900Y-86260100D01*
X44000000Y-82000000D02*
X45739900Y-83739900D01*
D15*
X45739900Y-87423400D02*
X45739900Y-86260100D01*
X45739900Y-86260100D02*
X45739900Y-84919400D01*
D16*
X36000000Y-68000000D02*
X44000000Y-68000000D01*
X36000000Y-68000000D02*
X36000000Y-82000000D01*
X45587500Y-69587500D02*
X45587500Y-71412500D01*
X44000000Y-68000000D02*
X45587500Y-69587500D01*
D15*
X45587500Y-72297700D02*
X45587500Y-71412500D01*
X45587500Y-71412500D02*
X45587500Y-69793700D01*
D16*
X36000000Y-53000000D02*
X36000000Y-68000000D01*
X36000000Y-38000000D02*
X36000000Y-53000000D01*
X45580300Y-53580300D02*
X45580300Y-56580300D01*
X45000000Y-53000000D02*
X45580300Y-53580300D01*
X36000000Y-53000000D02*
X45000000Y-53000000D01*
D15*
X45580300Y-57213500D02*
X45580300Y-56580300D01*
X45580300Y-56580300D02*
X45580300Y-54709500D01*
D16*
X45524000Y-34476000D02*
X46000000Y-34000000D01*
X45524000Y-41524000D02*
X45524000Y-34476000D01*
X46000000Y-34000000D02*
X40000000Y-34000000D01*
X52000000Y-34000000D02*
X46000000Y-34000000D01*
D15*
X45524000Y-41524000D02*
X45524000Y-39936000D01*
X45524000Y-42440000D02*
X45524000Y-41524000D01*
M02*
